<?xml version="1.0" encoding="UTF-8"?>
<svg xmlns="http://www.w3.org/2000/svg" xmlns:xlink="http://www.w3.org/1999/xlink" width="550" height="370" viewBox="80 165 550 370" role="img" aria-labelledby="aaradhyaLogoTitle">
<title id="aaradhyaLogoTitle">Aaradhya women's clothing brand</title>
<path fill-rule="nonzero" fill="rgb(37.599182%, 0%, 57.598877%)" fill-opacity="1" d="M 421.136719 330.601562 C 421.136719 330.601562 417.464844 336.191406 412.691406 335.464844 C 407.917969 334.738281 405.96875 322.933594 406.3125 306.484375 C 406.695312 288.003906 406.453125 250.285156 406.3125 247.441406 C 405.992188 241.15625 404.074219 232.296875 396.714844 225.171875 C 394.214844 222.753906 391.089844 220.535156 387.1875 218.6875 C 383.339844 216.867188 375.46875 214.855469 369.425781 214.21875 C 370.617188 215.5 373.113281 218.207031 374.695312 219.976562 C 378.460938 221.765625 381.179688 224.097656 382.589844 225.910156 C 385.890625 230.15625 387.382812 235.230469 387.976562 239.386719 C 388.242188 241.101562 388.175781 241.558594 388.304688 242.773438 C 388.324219 243.246094 388.339844 243.703125 388.339844 244.117188 C 388.339844 249.84375 388.402344 253.386719 388.402344 253.386719 L 388.402344 290.699219 C 388.402344 290.699219 383.773438 307.585938 375.964844 318.960938 C 372.785156 323.59375 365.953125 330.300781 361.550781 333.269531 C 360.21875 334.167969 358.011719 335.128906 356.050781 335.742188 C 354.089844 336.359375 351.949219 337.035156 349.238281 337.339844 C 345.503906 337.894531 341.828125 337.082031 338.761719 335.320312 C 333.304688 332.179688 329.777344 326.03125 331.25 319.21875 C 331.269531 319.140625 331.285156 319.0625 331.304688 318.984375 C 332.632812 313.191406 336.085938 308.613281 340.59375 304.945312 C 345.25 301.15625 350.175781 297.675781 355.070312 294.179688 C 361.011719 289.9375 366.777344 285.519531 371.160156 279.605469 C 376.21875 272.78125 379.109375 265.285156 377.972656 256.605469 C 377.910156 256.105469 377.761719 255.621094 377.558594 254.710938 C 376.328125 259.824219 373.632812 264.554688 369.933594 268.675781 C 364.308594 274.945312 357.398438 279.554688 350.277344 283.933594 C 344.507812 287.480469 338.640625 290.933594 333.21875 294.960938 C 327.140625 299.472656 323.035156 305.625 321.449219 313.101562 C 320.753906 316.363281 320.804688 319.785156 320.554688 322.738281 C 318.277344 317.066406 317.917969 310.855469 319.917969 304.582031 C 322.371094 296.886719 327.464844 291.148438 334.195312 286.972656 C 340.292969 283.195312 346.726562 279.949219 352.992188 276.4375 C 359.296875 272.90625 365.136719 268.777344 369.984375 263.382812 C 371.914062 261.234375 373.675781 258.96875 374.714844 255.8125 C 374.121094 256.269531 373.902344 256.40625 373.667969 256.640625 C 370.578125 259.753906 364.382812 263.320312 360.300781 264.972656 C 353.917969 267.5625 347.449219 269.957031 340.980469 272.335938 C 336.152344 274.109375 331.371094 275.953125 326.851562 278.3125 C 327.164062 278.027344 327.5 277.671875 327.804688 277.414062 C 335.785156 270.753906 345.191406 266.875 354.570312 262.382812 C 362.230469 258.710938 370.113281 255.582031 373.894531 250.125 C 374.457031 249.316406 369.382812 243.070312 368.742188 240.359375 C 367.53125 235.253906 369.445312 230.488281 372.753906 226.3125 C 374.53125 224.0625 374.140625 222.089844 372.203125 220.023438 C 370.511719 218.21875 368.910156 216.332031 366.945312 214.121094 C 363.851562 215.941406 360.1875 217.792969 356.871094 220.136719 C 353.378906 222.609375 350.667969 225.871094 349.667969 230.238281 C 349.214844 232.214844 349.253906 234.117188 350.410156 236.105469 C 351.09375 233.554688 353.058594 230.691406 355.132812 228.574219 C 358.195312 225.445312 361.542969 223.546875 361.734375 223.4375 C 362.058594 223.25 363.078125 222.707031 363.667969 222.542969 C 363.371094 222.664062 361.542969 224.0625 361.328125 224.265625 C 359.171875 226.351562 357.316406 228.609375 355.945312 231.109375 C 354.527344 233.691406 353.632812 236.53125 353.460938 239.695312 C 353.128906 245.761719 350.496094 249.085938 346.996094 253.808594 C 342.234375 260.230469 337.882812 263.375 331.863281 268.550781 C 323.378906 275.847656 315.503906 281.984375 309.511719 294.386719 C 309.429688 294.5625 309.332031 294.816406 309.242188 295.011719 C 307.320312 298.601562 306.050781 302.476562 305.898438 306.453125 C 305.898438 306.496094 305.898438 306.535156 305.898438 306.582031 C 305.597656 308.746094 305.585938 310.691406 306.042969 312.054688 C 306.640625 318.789062 308.988281 324.308594 313.949219 329.75 C 320.175781 336.574219 327.824219 341.328125 335.304688 343.078125 C 348.222656 346.097656 359.378906 342.804688 363.878906 340.5625 C 365.746094 339.628906 369 337.234375 371.410156 335.148438 C 380.40625 327.347656 387.144531 317.945312 388.441406 312.171875 C 388.441406 312.171875 388.492188 325.210938 388.503906 329.503906 C 388.523438 334.90625 393.066406 345.863281 405.476562 345.15625 C 417.882812 344.449219 422.355469 334.222656 422.355469 334.222656 Z M 345.464844 238.417969 C 345.425781 238.351562 345.386719 238.285156 345.347656 238.21875 C 345.359375 238.324219 345.378906 238.421875 345.390625 238.523438 C 345.417969 238.488281 345.441406 238.453125 345.464844 238.417969 M 317.699219 270.488281 C 322.535156 269.300781 327.03125 267.292969 331.21875 264.609375 C 335.625 261.789062 339.179688 258.132812 341.695312 253.515625 C 342.191406 252.601562 342.609375 251.644531 343.0625 250.707031 C 341.933594 252.03125 340.945312 253.429688 339.804688 254.691406 C 335.871094 259.027344 330.921875 261.933594 325.636719 264.246094 C 322.761719 265.507812 319.6875 266.070312 316.527344 265.117188 C 312.035156 263.761719 310.371094 259.539062 312.59375 255.4375 C 313.746094 253.3125 315.386719 251.726562 317.292969 250.359375 C 321.773438 247.144531 326.796875 244.972656 331.882812 242.929688 C 333.410156 242.316406 334.957031 241.746094 336.550781 241.132812 C 336.414062 241.019531 336.371094 240.964844 336.320312 240.945312 C 329.75 238.847656 323.484375 236.097656 317.503906 232.625 C 310.648438 228.632812 304.976562 223.460938 300.738281 216.753906 C 297.925781 212.304688 295.644531 207.613281 294.484375 202.433594 C 294.265625 201.460938 293.875 200.527344 293.503906 199.386719 C 293.996094 199.589844 294.324219 199.699219 294.632812 199.855469 C 298.042969 201.574219 301.710938 202.542969 305.382812 203.515625 C 309.277344 204.550781 313.175781 205.605469 317.003906 206.863281 C 320.304688 207.949219 323.421875 209.492188 326.085938 211.8125 C 330.628906 215.765625 334.4375 220.367188 337.6875 225.40625 C 340.21875 229.324219 342.523438 233.394531 344.921875 237.402344 C 344.894531 237.207031 344.871094 237.011719 344.835938 236.820312 C 344.167969 233.445312 342.789062 230.324219 341.308594 227.246094 C 338.597656 221.613281 335.734375 216.058594 331.992188 211.019531 C 329.664062 207.886719 327.109375 204.960938 323.839844 202.761719 C 317.953125 198.796875 311.359375 196.539062 304.539062 194.8125 C 301.136719 193.953125 297.820312 192.859375 294.996094 190.65625 C 291.914062 188.253906 289.777344 185.101562 287.863281 181.765625 C 287.613281 181.328125 287.332031 180.902344 287.070312 180.472656 C 286.957031 180.5 286.847656 180.527344 286.734375 180.554688 C 286.488281 183.195312 286.117188 185.832031 286.011719 188.480469 C 285.621094 198.34375 287.769531 207.625 292.773438 216.167969 C 298.875 226.582031 307.90625 233.65625 318.679688 238.71875 C 319.796875 239.242188 320.921875 239.746094 322.304688 240.382812 C 320.878906 241.136719 319.695312 241.746094 318.523438 242.382812 C 315.269531 244.152344 311.917969 245.773438 308.796875 247.753906 C 305.496094 249.847656 303.035156 252.777344 301.945312 256.652344 C 300.332031 262.382812 303.105469 268.101562 308.425781 270.085938 C 311.472656 271.21875 314.589844 271.25 317.699219 270.488281 M 351.226562 194.671875 C 349.207031 190.210938 350.113281 186.488281 353.46875 182.984375 C 350.8125 182.191406 348.765625 182.507812 347.070312 184.265625 C 345.445312 185.949219 344.964844 188.832031 346.035156 190.96875 C 347.046875 193 348.5625 194.449219 351.226562 194.671875 M 346.632812 230.046875 C 347.269531 224.941406 349.898438 221.460938 353.742188 219.144531 C 357.410156 216.933594 361.445312 215.328125 365.300781 213.464844 C 365.035156 213.390625 364.621094 213.265625 364.203125 213.152344 C 360.046875 212 358.453125 209.011719 359.816406 204.933594 C 360.714844 202.246094 361.023438 202.058594 363.46875 203.511719 C 365.109375 204.484375 366.28125 204.242188 367.59375 202.9375 C 369.03125 201.515625 370.433594 200.210938 370.472656 197.953125 C 370.488281 197.171875 371 196.363281 371.402344 195.632812 C 373.78125 191.308594 373.039062 187.085938 369.304688 183.925781 C 366.074219 181.191406 361.28125 180.65625 357.613281 182.621094 C 354.171875 184.460938 352.410156 187.777344 352.988281 191.703125 C 353.203125 193.164062 353.929688 194.546875 354.183594 196.003906 C 354.429688 197.433594 354.753906 199.019531 354.378906 200.351562 C 353.03125 205.125 350.253906 208.703125 345.144531 209.957031 C 344.203125 210.191406 343.265625 210.464844 342.34375 210.777344 C 339.546875 211.730469 338.496094 213.3125 339.234375 216.117188 C 340.570312 221.1875 343.492188 225.449219 346.632812 230.046875 "/>
<path fill-rule="nonzero" fill="rgb(37.599182%, 37.599182%, 37.599182%)" fill-opacity="1" d="M 125.441406 500.945312 C 125.441406 501.679688 124.398438 504.554688 122.296875 509.574219 C 120.199219 514.59375 119.152344 517.523438 119.152344 518.367188 L 116.65625 518.367188 C 116.65625 517.902344 116.039062 516.125 114.808594 513.03125 C 113.292969 509.226562 112.214844 506.257812 111.582031 504.117188 L 111.433594 504.117188 C 110.84375 506.183594 109.839844 509.160156 108.425781 513.050781 C 107.296875 516.128906 106.738281 517.902344 106.738281 518.367188 L 104.226562 518.367188 C 104.226562 517.660156 103.234375 514.722656 101.257812 509.554688 C 99.273438 504.394531 98.285156 501.523438 98.285156 500.945312 L 101.546875 500.945312 C 101.546875 501.582031 102.261719 503.902344 103.6875 507.914062 C 105.109375 511.921875 105.820312 514.261719 105.820312 514.917969 L 106.023438 514.917969 C 106.023438 513.917969 106.761719 511.5 108.234375 507.667969 C 109.703125 503.832031 110.441406 501.59375 110.441406 500.945312 L 113.558594 500.945312 C 113.558594 501.507812 114.324219 503.851562 115.851562 507.96875 C 117.378906 512.089844 118.144531 514.40625 118.144531 514.917969 L 118.328125 514.917969 C 118.328125 514.175781 118.992188 511.898438 120.320312 508.085938 C 121.644531 504.277344 122.304688 501.898438 122.304688 500.945312 Z M 125.441406 500.945312 "/>
<path fill-rule="nonzero" fill="rgb(37.599182%, 37.599182%, 37.599182%)" fill-opacity="1" d="M 142.242188 509.765625 C 142.242188 507.859375 141.761719 506.160156 140.800781 504.679688 C 139.839844 503.191406 138.476562 502.449219 136.703125 502.449219 C 134.945312 502.449219 133.589844 503.152344 132.640625 504.558594 C 131.695312 505.964844 131.21875 507.597656 131.21875 509.457031 C 131.21875 511.375 131.699219 513.074219 132.660156 514.550781 C 133.621094 516.035156 134.992188 516.769531 136.777344 516.769531 C 138.539062 516.769531 139.890625 516.066406 140.832031 514.65625 C 141.769531 513.242188 142.242188 511.613281 142.242188 509.765625 M 145.414062 509.121094 C 145.414062 512.253906 144.515625 514.699219 142.71875 516.453125 C 140.921875 518.207031 138.804688 519.082031 136.371094 519.082031 C 134.097656 519.082031 132.144531 518.304688 130.515625 516.753906 C 128.882812 515.203125 128.066406 513.011719 128.066406 510.1875 C 128.066406 507.035156 128.96875 504.570312 130.773438 502.800781 C 132.574219 501.027344 134.695312 500.136719 137.128906 500.136719 C 139.398438 500.136719 141.347656 500.921875 142.972656 502.496094 C 144.601562 504.066406 145.414062 506.273438 145.414062 509.121094 "/>
<path fill-rule="nonzero" fill="rgb(37.599182%, 37.599182%, 37.599182%)" fill-opacity="1" d="M 172.683594 507.75 C 172.683594 505.796875 172.34375 504.503906 171.664062 503.871094 C 170.988281 503.242188 169.871094 502.929688 168.316406 502.929688 C 167.007812 502.929688 165.65625 503.570312 164.265625 504.855469 C 164.21875 506.339844 164.1875 507.804688 164.1875 509.238281 C 164.1875 511.277344 164.226562 514.324219 164.304688 518.367188 L 160.960938 518.367188 C 161.230469 514.882812 161.363281 511.34375 161.363281 507.75 C 161.363281 505.796875 161.027344 504.503906 160.347656 503.871094 C 159.667969 503.242188 158.585938 502.929688 157.09375 502.929688 C 155.566406 502.929688 154.136719 503.570312 152.804688 504.855469 C 152.804688 508.730469 152.828125 513.234375 152.875 518.367188 L 149.539062 518.367188 C 149.773438 514.210938 149.886719 511.203125 149.886719 509.347656 C 149.886719 506.523438 149.613281 503.746094 149.0625 501.019531 L 152.292969 500.5625 L 152.621094 502.78125 L 152.804688 502.78125 C 154.390625 501.15625 156.160156 500.34375 158.105469 500.34375 C 161 500.34375 162.863281 501.15625 163.695312 502.78125 L 163.898438 502.78125 C 165.742188 501.15625 167.5625 500.34375 169.363281 500.34375 C 171.414062 500.34375 172.96875 500.792969 174.019531 501.699219 C 175.070312 502.601562 175.597656 504.199219 175.597656 506.484375 C 175.597656 506.71875 175.582031 507.175781 175.558594 507.859375 C 175.535156 508.542969 175.527344 509.003906 175.527344 509.238281 C 175.527344 511.277344 175.550781 514.324219 175.597656 518.367188 L 172.261719 518.367188 C 172.539062 515.164062 172.683594 511.625 172.683594 507.75 "/>
<path fill-rule="nonzero" fill="rgb(37.599182%, 37.599182%, 37.599182%)" fill-opacity="1" d="M 192.378906 507.640625 C 192.378906 504.203125 190.941406 502.488281 188.070312 502.488281 C 185.136719 502.488281 183.40625 504.269531 182.878906 507.839844 Z M 195.445312 507.601562 C 195.445312 508.117188 195.414062 508.824219 195.367188 509.730469 L 182.769531 509.949219 C 182.894531 511.738281 183.582031 513.230469 184.84375 514.433594 C 186.101562 515.640625 187.773438 516.238281 189.847656 516.238281 C 191.707031 516.238281 193.445312 516.015625 195.074219 515.5625 L 194.761719 518.144531 C 193.566406 518.625 191.835938 518.863281 189.574219 518.863281 C 186.394531 518.863281 183.972656 517.992188 182.304688 516.257812 C 180.632812 514.523438 179.800781 512.40625 179.800781 509.910156 C 179.800781 507.25 180.558594 504.953125 182.082031 503.027344 C 183.601562 501.105469 185.652344 500.136719 188.21875 500.136719 C 190.578125 500.136719 192.367188 500.835938 193.597656 502.230469 C 194.824219 503.621094 195.445312 505.414062 195.445312 507.601562 "/>
<path fill-rule="nonzero" fill="rgb(37.599182%, 37.599182%, 37.599182%)" fill-opacity="1" d="M 215.210938 518.367188 L 211.871094 518.367188 C 212.136719 515.148438 212.269531 511.644531 212.269531 507.839844 C 212.269531 505.957031 211.890625 504.671875 211.125 503.980469 C 210.367188 503.289062 209.273438 502.941406 207.855469 502.941406 C 206.121094 502.941406 204.519531 503.574219 203.050781 504.835938 C 203.050781 509.003906 203.074219 513.515625 203.121094 518.367188 L 199.785156 518.367188 C 199.992188 514.210938 200.097656 511.203125 200.097656 509.347656 C 200.097656 506.484375 199.828125 503.707031 199.289062 501.019531 L 202.515625 500.5625 L 202.863281 502.800781 L 203.011719 502.800781 C 204.824219 501.160156 206.761719 500.34375 208.824219 500.34375 C 210.855469 500.34375 212.429688 500.789062 213.539062 501.6875 C 214.652344 502.585938 215.210938 504.183594 215.210938 506.484375 C 215.210938 506.71875 215.195312 507.175781 215.171875 507.859375 C 215.148438 508.542969 215.132812 509.003906 215.132812 509.238281 C 215.132812 511.277344 215.15625 514.324219 215.210938 518.367188 "/>
<path fill-rule="nonzero" fill="rgb(37.599182%, 37.599182%, 37.599182%)" fill-opacity="1" d="M 236.675781 513.394531 C 236.675781 516.964844 234.394531 518.753906 229.835938 518.753906 C 227.820312 518.753906 225.9375 518.550781 224.1875 518.144531 L 224.753906 515.449219 C 226.347656 516.0625 228.066406 516.367188 229.925781 516.367188 C 232.59375 516.367188 233.921875 515.609375 233.921875 514.09375 C 233.921875 513.363281 233.628906 512.777344 233.035156 512.339844 C 232.441406 511.90625 231.460938 511.421875 230.09375 510.886719 C 228.355469 510.203125 227.097656 509.542969 226.3125 508.90625 C 225.164062 507.964844 224.59375 506.828125 224.59375 505.496094 C 224.59375 504.097656 225.117188 502.90625 226.167969 501.90625 C 227.222656 500.914062 228.820312 500.414062 230.972656 500.414062 C 233.074219 500.414062 234.761719 500.589844 236.035156 500.945312 L 235.464844 503.585938 C 234.148438 503.0625 232.617188 502.800781 230.882812 502.800781 C 228.53125 502.800781 227.359375 503.476562 227.359375 504.835938 C 227.359375 505.519531 227.621094 506.070312 228.148438 506.496094 C 228.675781 506.917969 229.703125 507.425781 231.230469 508.023438 C 232.878906 508.671875 234.097656 509.308594 234.898438 509.929688 C 236.082031 510.894531 236.675781 512.050781 236.675781 513.394531 "/>
<path fill-rule="nonzero" fill="rgb(37.599182%, 37.599182%, 37.599182%)" fill-opacity="1" d="M 262.234375 515.5625 L 262.050781 518.015625 C 261.0625 518.582031 259.734375 518.863281 258.070312 518.863281 C 254.90625 518.863281 252.488281 517.988281 250.808594 516.238281 C 249.136719 514.488281 248.296875 512.382812 248.296875 509.910156 C 248.296875 507.296875 249.179688 505.050781 250.9375 503.167969 C 252.699219 501.285156 255.03125 500.34375 257.925781 500.34375 C 259.378906 500.34375 260.566406 500.484375 261.484375 500.78125 L 260.984375 503.660156 C 259.703125 503.1875 258.40625 502.941406 257.082031 502.941406 C 255.347656 502.941406 253.964844 503.550781 252.9375 504.757812 C 251.910156 505.972656 251.398438 507.488281 251.398438 509.308594 C 251.398438 511.289062 252.007812 512.941406 253.230469 514.261719 C 254.453125 515.578125 256.183594 516.238281 258.417969 516.238281 C 259.335938 516.238281 260.609375 516.015625 262.234375 515.5625 "/>
<path fill-rule="nonzero" fill="rgb(37.599182%, 37.599182%, 37.599182%)" fill-opacity="1" d="M 269.410156 518.367188 L 265.886719 518.367188 C 266.105469 514.332031 266.21875 509.773438 266.21875 504.6875 C 266.21875 499.75 266.039062 495.707031 265.6875 492.566406 L 269.410156 492.382812 C 269.175781 495.707031 269.058594 499.808594 269.058594 504.6875 C 269.058594 509.710938 269.175781 514.269531 269.410156 518.367188 "/>
<path fill-rule="nonzero" fill="rgb(37.599182%, 37.599182%, 37.599182%)" fill-opacity="1" d="M 288.039062 509.765625 C 288.039062 507.859375 287.558594 506.160156 286.597656 504.679688 C 285.636719 503.191406 284.273438 502.449219 282.5 502.449219 C 280.742188 502.449219 279.386719 503.152344 278.4375 504.558594 C 277.492188 505.964844 277.015625 507.597656 277.015625 509.457031 C 277.015625 511.375 277.496094 513.074219 278.453125 514.550781 C 279.414062 516.035156 280.789062 516.769531 282.570312 516.769531 C 284.335938 516.769531 285.683594 516.066406 286.625 514.65625 C 287.566406 513.242188 288.039062 511.613281 288.039062 509.765625 M 291.207031 509.121094 C 291.207031 512.253906 290.308594 514.699219 288.515625 516.453125 C 286.71875 518.207031 284.601562 519.082031 282.167969 519.082031 C 279.894531 519.082031 277.941406 518.304688 276.3125 516.753906 C 274.679688 515.203125 273.863281 513.011719 273.863281 510.1875 C 273.863281 507.035156 274.765625 504.570312 276.566406 502.800781 C 278.371094 501.027344 280.488281 500.136719 282.921875 500.136719 C 285.195312 500.136719 287.144531 500.921875 288.769531 502.496094 C 290.394531 504.066406 291.207031 506.273438 291.207031 509.121094 "/>
<path fill-rule="nonzero" fill="rgb(37.599182%, 37.599182%, 37.599182%)" fill-opacity="1" d="M 305.492188 515.835938 L 305.273438 518.222656 C 304.308594 518.574219 303.398438 518.753906 302.542969 518.753906 C 300.339844 518.753906 298.839844 518.191406 298.03125 517.074219 C 297.222656 515.953125 296.824219 513.953125 296.824219 511.066406 C 296.824219 509.199219 296.832031 506.761719 296.855469 503.75 C 296.171875 503.75 295.164062 503.789062 293.832031 503.859375 L 293.941406 501.203125 C 295.101562 501.273438 296.144531 501.3125 297.058594 501.3125 C 297.058594 500.582031 297.121094 498.835938 297.242188 496.089844 L 300.121094 495.792969 C 299.914062 498.359375 299.808594 500.199219 299.808594 501.3125 C 301.003906 501.3125 302.769531 501.25 305.089844 501.128906 L 304.960938 503.859375 C 302.757812 503.789062 300.996094 503.75 299.664062 503.75 C 299.636719 505.597656 299.628906 507.679688 299.628906 509.988281 C 299.628906 512.507812 299.894531 514.171875 300.425781 514.984375 C 300.953125 515.796875 301.941406 516.207031 303.386719 516.207031 C 303.863281 516.207031 304.566406 516.082031 305.492188 515.835938 "/>
<path fill-rule="nonzero" fill="rgb(37.599182%, 37.599182%, 37.599182%)" fill-opacity="1" d="M 324.460938 518.367188 L 321.121094 518.367188 C 321.390625 515.148438 321.523438 511.695312 321.523438 507.988281 C 321.523438 506.007812 321.15625 504.671875 320.414062 503.980469 C 319.671875 503.289062 318.652344 502.941406 317.34375 502.941406 C 315.507812 502.941406 313.792969 503.574219 312.191406 504.835938 C 312.191406 511.507812 312.238281 516.019531 312.339844 518.367188 L 309.109375 518.367188 C 309.21875 515.140625 309.277344 510.582031 309.277344 504.6875 C 309.277344 499.53125 309.097656 495.488281 308.746094 492.566406 L 312.230469 492.382812 C 312.128906 496.113281 312.082031 499.574219 312.082031 502.761719 L 312.191406 502.761719 C 314.027344 501.148438 316.035156 500.34375 318.222656 500.34375 C 320.183594 500.34375 321.707031 500.796875 322.8125 501.707031 C 323.910156 502.621094 324.460938 504.21875 324.460938 506.503906 C 324.460938 506.734375 324.445312 507.1875 324.421875 507.867188 C 324.398438 508.546875 324.382812 509.140625 324.382812 509.65625 C 324.382812 511.417969 324.40625 514.324219 324.460938 518.367188 "/>
<path fill-rule="nonzero" fill="rgb(37.599182%, 37.599182%, 37.599182%)" fill-opacity="1" d="M 333.355469 495.445312 C 333.355469 496.070312 333.148438 496.613281 332.746094 497.066406 C 332.339844 497.523438 331.777344 497.757812 331.039062 497.757812 C 330.417969 497.757812 329.929688 497.558594 329.585938 497.15625 C 329.234375 496.761719 329.0625 496.285156 329.0625 495.71875 C 329.0625 495.109375 329.265625 494.578125 329.683594 494.125 C 330.097656 493.671875 330.671875 493.445312 331.410156 493.445312 C 332.007812 493.445312 332.480469 493.644531 332.832031 494.039062 C 333.179688 494.4375 333.355469 494.90625 333.355469 495.445312 M 332.578125 518.367188 L 329.261719 518.367188 C 329.433594 515.921875 329.519531 513.128906 329.519531 509.988281 C 329.519531 506.457031 329.304688 503.488281 328.875 501.09375 L 332.546875 500.597656 C 332.398438 503.152344 332.324219 506.28125 332.324219 509.988281 C 332.324219 512.921875 332.410156 515.714844 332.578125 518.367188 "/>
<path fill-rule="nonzero" fill="rgb(37.599182%, 37.599182%, 37.599182%)" fill-opacity="1" d="M 352.976562 518.367188 L 349.640625 518.367188 C 349.90625 515.148438 350.039062 511.644531 350.039062 507.839844 C 350.039062 505.957031 349.65625 504.671875 348.894531 503.980469 C 348.132812 503.289062 347.039062 502.941406 345.625 502.941406 C 343.886719 502.941406 342.285156 503.574219 340.816406 504.835938 C 340.816406 509.003906 340.839844 513.515625 340.886719 518.367188 L 337.550781 518.367188 C 337.761719 514.210938 337.863281 511.203125 337.863281 509.347656 C 337.863281 506.484375 337.59375 503.707031 337.058594 501.019531 L 340.285156 500.5625 L 340.632812 502.800781 L 340.78125 502.800781 C 342.589844 501.160156 344.53125 500.34375 346.59375 500.34375 C 348.621094 500.34375 350.195312 500.789062 351.308594 501.6875 C 352.421875 502.585938 352.976562 504.183594 352.976562 506.484375 C 352.976562 506.71875 352.960938 507.175781 352.9375 507.859375 C 352.914062 508.542969 352.902344 509.003906 352.902344 509.238281 C 352.902344 511.277344 352.925781 514.324219 352.976562 518.367188 "/>
<path fill-rule="nonzero" fill="rgb(37.599182%, 37.599182%, 37.599182%)" fill-opacity="1" d="M 369.1875 506.464844 C 369.1875 505.121094 368.757812 504.089844 367.910156 503.375 C 367.0625 502.664062 365.984375 502.300781 364.675781 502.300781 C 363.4375 502.300781 362.40625 502.648438 361.574219 503.339844 C 360.746094 504.03125 360.324219 505.011719 360.324219 506.28125 C 360.324219 507.617188 360.753906 508.628906 361.605469 509.328125 C 362.449219 510.019531 363.542969 510.371094 364.875 510.371094 C 366.097656 510.371094 367.125 510.03125 367.945312 509.355469 C 368.773438 508.675781 369.1875 507.710938 369.1875 506.464844 M 371.734375 521.46875 C 371.734375 520.316406 371.316406 519.507812 370.480469 519.039062 C 369.644531 518.566406 368.066406 518.332031 365.753906 518.332031 C 364.191406 518.332031 362.757812 518.257812 361.46875 518.113281 C 359.972656 518.828125 359.226562 519.890625 359.226562 521.28125 C 359.226562 524.269531 361.179688 525.753906 365.09375 525.753906 C 367.136719 525.753906 368.753906 525.359375 369.945312 524.566406 C 371.140625 523.769531 371.734375 522.738281 371.734375 521.46875 M 375.019531 498.636719 L 374.722656 501.164062 C 372.449219 501.164062 371.195312 501.53125 370.964844 502.269531 L 370.964844 502.449219 C 371.746094 503.402344 372.136719 504.492188 372.136719 505.714844 C 372.136719 507.621094 371.511719 509.195312 370.253906 510.433594 C 369.003906 511.675781 367.070312 512.296875 364.453125 512.296875 C 363.292969 512.296875 362.371094 512.175781 361.683594 511.933594 C 361.085938 512.359375 360.785156 512.890625 360.785156 513.523438 C 360.785156 514.308594 361.136719 514.828125 361.851562 515.082031 C 362.753906 515.425781 364.640625 515.597656 367.519531 515.597656 C 372.160156 515.597656 374.488281 517.136719 374.488281 520.21875 C 374.488281 522.417969 373.578125 524.238281 371.773438 525.683594 C 369.960938 527.125 367.621094 527.847656 364.746094 527.847656 C 361.796875 527.847656 359.703125 527.316406 358.449219 526.246094 C 357.191406 525.175781 356.570312 523.886719 356.570312 522.386719 C 356.570312 521.015625 356.878906 519.914062 357.492188 519.082031 C 358.109375 518.25 358.878906 517.734375 359.796875 517.542969 L 359.796875 517.375 C 358.828125 516.914062 358.347656 516.019531 358.347656 514.699219 C 358.347656 513.5 358.957031 512.449219 360.183594 511.546875 L 360.183594 511.398438 C 359.53125 511.082031 358.914062 510.542969 358.328125 509.785156 C 357.746094 509.027344 357.449219 508.085938 357.449219 506.960938 C 357.449219 505.015625 358.089844 503.433594 359.375 502.210938 C 360.660156 500.988281 362.515625 500.375 364.953125 500.375 C 366.941406 500.375 368.507812 500.738281 369.644531 501.460938 L 369.847656 501.460938 C 370.238281 499.390625 371.261719 498.359375 372.925781 498.359375 C 373.828125 498.359375 374.53125 498.453125 375.019531 498.636719 "/>
<path fill-rule="nonzero" fill="rgb(37.599182%, 37.599182%, 37.599182%)" fill-opacity="1" d="M 399.550781 509.378906 C 399.550781 507.535156 399.066406 505.976562 398.101562 504.707031 C 397.136719 503.433594 395.800781 502.800781 394.105469 502.800781 C 391.902344 502.800781 390.324219 503.464844 389.371094 504.796875 C 389.371094 509.152344 389.46875 512.679688 389.664062 515.378906 C 390.65625 516.210938 391.945312 516.625 393.535156 516.625 C 395.539062 516.625 397.042969 515.921875 398.042969 514.519531 C 399.046875 513.109375 399.550781 511.398438 399.550781 509.378906 M 402.8125 508.941406 C 402.8125 511.617188 402.046875 513.941406 400.519531 515.910156 C 398.992188 517.878906 396.902344 518.863281 394.25 518.863281 C 392 518.863281 390.472656 518.460938 389.664062 517.652344 L 389.515625 517.652344 L 389.0625 518.367188 L 386.363281 518.367188 C 386.523438 514.148438 386.601562 509.589844 386.601562 504.6875 C 386.601562 500.261719 386.402344 496.222656 386 492.566406 L 389.625 492.378906 C 389.507812 494.488281 389.445312 497.820312 389.445312 502.378906 L 389.59375 502.378906 C 390.792969 500.996094 392.691406 500.304688 395.296875 500.304688 C 397.554688 500.304688 399.375 501.144531 400.75 502.832031 C 402.128906 504.523438 402.8125 506.554688 402.8125 508.941406 "/>
<path fill-rule="nonzero" fill="rgb(37.599182%, 37.599182%, 37.599182%)" fill-opacity="1" d="M 418.128906 500.945312 L 417.304688 503.859375 C 416.351562 503.484375 415.46875 503.292969 414.644531 503.292969 C 412.347656 503.292969 410.855469 504.386719 410.171875 506.574219 C 410.171875 512.199219 410.210938 516.128906 410.28125 518.367188 L 407.035156 518.367188 C 407.230469 514.488281 407.328125 511.484375 407.328125 509.347656 C 407.328125 506.445312 407.042969 503.671875 406.46875 501.019531 L 409.675781 500.5625 C 409.910156 501.90625 410.023438 502.804688 410.023438 503.257812 L 410.171875 503.257812 C 411.492188 501.3125 413.035156 500.34375 414.792969 500.34375 C 415.722656 500.34375 416.835938 500.542969 418.128906 500.945312 "/>
<path fill-rule="nonzero" fill="rgb(37.599182%, 37.599182%, 37.599182%)" fill-opacity="1" d="M 430.890625 514.808594 C 430.832031 512.949219 430.796875 511.28125 430.796875 509.800781 C 428.5 509.800781 426.753906 509.972656 425.554688 510.316406 C 423.546875 510.929688 422.546875 512.09375 422.546875 513.820312 C 422.546875 515.484375 423.71875 516.316406 426.066406 516.316406 C 428.082031 516.316406 429.691406 515.8125 430.890625 514.808594 M 434.132812 518.367188 L 431.257812 518.476562 C 431.109375 517.878906 431.035156 517.308594 431.035156 516.769531 L 430.855469 516.769531 C 429.351562 518.140625 427.304688 518.824219 424.710938 518.824219 C 423.304688 518.824219 422.09375 518.410156 421.082031 517.589844 C 420.0625 516.761719 419.554688 515.585938 419.554688 514.058594 C 419.554688 512.175781 420.351562 510.664062 421.941406 509.519531 C 423.527344 508.375 426.480469 507.773438 430.796875 507.710938 C 430.835938 507.421875 430.855469 507.082031 430.855469 506.703125 C 430.855469 505.199219 430.453125 504.199219 429.652344 503.699219 C 428.851562 503.195312 427.636719 502.941406 426.011719 502.941406 C 424.09375 502.941406 422.203125 503.1875 420.34375 503.660156 L 420.65625 501.128906 C 422.492188 500.605469 424.597656 500.34375 426.984375 500.34375 C 429.160156 500.34375 430.839844 500.789062 432.027344 501.6875 C 433.210938 502.585938 433.804688 504.117188 433.804688 506.28125 C 433.804688 506.855469 433.777344 507.902344 433.726562 509.40625 C 433.667969 510.921875 433.640625 511.921875 433.640625 512.425781 C 433.640625 514.652344 433.804688 516.632812 434.132812 518.367188 "/>
<path fill-rule="nonzero" fill="rgb(37.599182%, 37.599182%, 37.599182%)" fill-opacity="1" d="M 454.328125 518.367188 L 450.988281 518.367188 C 451.257812 515.148438 451.390625 511.644531 451.390625 507.839844 C 451.390625 505.957031 451.007812 504.671875 450.242188 503.980469 C 449.484375 503.289062 448.390625 502.941406 446.972656 502.941406 C 445.238281 502.941406 443.636719 503.574219 442.167969 504.835938 C 442.167969 509.003906 442.191406 513.515625 442.238281 518.367188 L 438.902344 518.367188 C 439.113281 514.210938 439.214844 511.203125 439.214844 509.347656 C 439.214844 506.484375 438.945312 503.707031 438.40625 501.019531 L 441.636719 500.5625 L 441.980469 502.800781 L 442.128906 502.800781 C 443.941406 501.160156 445.878906 500.34375 447.941406 500.34375 C 449.972656 500.34375 451.546875 500.789062 452.660156 501.6875 C 453.769531 502.585938 454.328125 504.183594 454.328125 506.484375 C 454.328125 506.71875 454.3125 507.175781 454.289062 507.859375 C 454.265625 508.542969 454.25 509.003906 454.25 509.238281 C 454.25 511.277344 454.273438 514.324219 454.328125 518.367188 "/>
<path fill-rule="nonzero" fill="rgb(37.599182%, 37.599182%, 37.599182%)" fill-opacity="1" d="M 471.992188 514.738281 C 471.992188 510.933594 471.886719 507.273438 471.675781 503.75 C 470.6875 502.933594 469.453125 502.523438 467.972656 502.523438 C 465.90625 502.523438 464.363281 503.210938 463.335938 504.585938 C 462.308594 505.960938 461.796875 507.6875 461.796875 509.765625 C 461.796875 511.625 462.28125 513.191406 463.25 514.460938 C 464.222656 515.734375 465.570312 516.367188 467.292969 516.367188 C 469.457031 516.367188 471.023438 515.824219 471.992188 514.738281 M 474.941406 518.347656 L 472.210938 518.441406 C 472.109375 517.917969 472.0625 517.359375 472.0625 516.769531 L 471.863281 516.769531 C 470.574219 518.164062 468.667969 518.863281 466.140625 518.863281 C 463.816406 518.863281 461.964844 518.015625 460.59375 516.335938 C 459.21875 514.648438 458.527344 512.605469 458.527344 510.226562 C 458.527344 507.523438 459.292969 505.195312 460.820312 503.238281 C 462.351562 501.285156 464.5 500.304688 467.277344 500.304688 C 469.257812 500.304688 470.675781 500.710938 471.53125 501.511719 L 471.675781 501.511719 C 471.675781 498.484375 471.59375 495.503906 471.421875 492.585938 L 474.90625 492.457031 C 474.671875 495.5625 474.558594 499.625 474.558594 504.648438 C 474.558594 509.761719 474.6875 514.328125 474.941406 518.347656 "/>
<path fill-rule="nonzero" fill="rgb(37.599182%, 0%, 57.598877%)" fill-opacity="1" d="M 296.4375 420.039062 C 297.917969 415.542969 291.753906 410.71875 284.046875 410.972656 C 280.613281 411.085938 276.160156 412.277344 272.355469 415.625 C 268.382812 419.121094 265.769531 423.847656 264.589844 428.011719 L 264.53125 412.339844 C 264.53125 412.339844 263.355469 411.648438 263.230469 411.695312 C 262.085938 412.113281 248.730469 416.355469 248.933594 416.945312 C 249.140625 417.535156 254.640625 420.328125 254.816406 424.734375 C 254.988281 429.140625 254.910156 452.292969 254.910156 452.292969 C 254.910156 452.292969 252.765625 460.613281 249.753906 466.703125 C 247.449219 471.367188 244.800781 475.167969 242.625 475.03125 C 240.347656 474.886719 238.820312 474.460938 238.703125 469.027344 C 238.566406 462.71875 238.5625 428.039062 238.5625 428.039062 L 237.910156 427.394531 C 237.910156 427.394531 235.296875 434.097656 228.835938 437.183594 C 228.835938 437.183594 228.90625 452.910156 228.253906 457.351562 C 227.601562 461.789062 223.109375 475.503906 212.707031 477.570312 C 202.308594 479.636719 194.847656 473.773438 193.15625 466.578125 C 191.460938 459.382812 194.207031 451.4375 204.144531 446.375 C 214.082031 441.308594 229.285156 435.972656 233.792969 428.582031 C 238.300781 421.191406 234.554688 410.410156 220.585938 409.910156 C 206.617188 409.410156 194.667969 414.175781 183.234375 419.121094 C 171.804688 424.066406 157.898438 429.613281 157.898438 429.613281 L 140.191406 388.039062 L 130.433594 388.039062 L 133.191406 395.8125 L 116.328125 442.117188 L 115.683594 444.070312 L 119.5625 442.929688 L 135.03125 400.417969 L 148.804688 433.550781 C 148.804688 433.550781 123.972656 443.421875 116.324219 447.972656 C 108.671875 452.519531 96.679688 459.023438 97.519531 472.148438 C 97.945312 478.769531 103.175781 482.734375 109.640625 483.15625 C 114.363281 483.464844 120.441406 481.578125 124.078125 478.835938 C 132.878906 472.199219 154.863281 448.175781 154.863281 448.175781 C 154.863281 448.175781 163.269531 466.707031 163.886719 469.277344 C 164.507812 471.851562 164.769531 478.25 160.667969 479.046875 L 160.671875 480.347656 L 183.441406 480.273438 L 183.4375 478.972656 C 183.4375 478.972656 177.394531 477.199219 172.988281 466.644531 C 168.578125 456.089844 161.179688 438.0625 161.179688 438.0625 C 161.179688 438.0625 157.78125 441.222656 153.398438 445.242188 C 149.144531 449.144531 143.953125 454.179688 141.078125 457.320312 C 137.96875 460.722656 134.046875 465.332031 129.410156 469.722656 C 125.339844 473.578125 122.398438 476.007812 118.175781 476.835938 C 110.242188 478.390625 105.703125 473.800781 105.425781 468.613281 C 105.148438 463.429688 107.367188 459.832031 113.09375 455.136719 C 118.386719 450.804688 154.925781 433.910156 160.507812 431.558594 C 166.089844 429.207031 192.484375 417.832031 200.136719 415.8125 C 207.792969 413.785156 221.308594 410.71875 226.179688 420.925781 C 231.097656 431.230469 219.488281 436.632812 214.527344 438.53125 C 209.332031 440.515625 186.902344 444.828125 184.019531 458.152344 C 181.132812 471.472656 187.996094 479.808594 201.011719 481.515625 C 214.027344 483.21875 225.042969 475.71875 228.925781 463.855469 C 228.925781 463.855469 228.996094 473 230.269531 476.863281 C 231.542969 480.722656 239.597656 484.941406 245.886719 478.109375 C 252.179688 471.28125 256.300781 455.964844 258.15625 450.746094 C 260.011719 445.527344 266.566406 429.285156 269.128906 424.683594 C 271.691406 420.085938 276.011719 416.882812 279.476562 417.035156 C 282.9375 417.1875 286.164062 419.101562 288.644531 424.621094 C 288.976562 425.507812 294.953125 424.535156 296.4375 420.039062 "/>
<path fill-rule="nonzero" fill="rgb(37.599182%, 0%, 57.598877%)" fill-opacity="1" d="M 265.386719 472.839844 C 264.304688 468.425781 264.625 443.019531 264.625 443.019531 L 255.601562 468.421875 C 255.601562 468.421875 255.523438 471.621094 254.332031 474.179688 C 253.140625 476.738281 251.683594 478.308594 249.820312 478.96875 L 249.824219 480.269531 L 271.292969 480.269531 L 271.289062 478.96875 C 271.289062 478.96875 266.46875 477.253906 265.386719 472.839844 "/>
<path fill-rule="nonzero" fill="rgb(37.599182%, 0%, 57.598877%)" fill-opacity="1" d="M 339.496094 456.691406 C 339.496094 456.691406 337.96875 464.113281 332.941406 470.28125 C 331.03125 472.625 328.414062 474.246094 325.898438 475.601562 C 317.242188 480.277344 303.566406 474.523438 303.734375 462.300781 C 303.902344 450.078125 317.15625 444.589844 325.777344 441.359375 C 334.402344 438.125 339.410156 432.203125 339.410156 432.203125 Z M 352.574219 476.449219 C 350.003906 476.058594 348.976562 470.792969 349.269531 460.847656 C 349.5625 450.898438 349.273438 434.136719 348.507812 427.667969 C 347.96875 423.117188 345.34375 412.386719 327.632812 410.824219 C 319.777344 410.132812 312.21875 412.898438 307.484375 416.75 C 301.261719 421.8125 299.066406 428.488281 299.066406 428.488281 L 308.84375 434.308594 L 309.492188 433.007812 C 309.492188 433.007812 308.925781 412.773438 325.6875 412.785156 C 337.71875 412.789062 338.230469 425.433594 338.097656 427.054688 C 337.898438 429.398438 336.777344 434.164062 320.574219 439.472656 C 304.367188 444.785156 294.351562 448.289062 293.324219 461.683594 C 292.296875 475.082031 305.207031 482.933594 319.410156 481.113281 C 331.253906 479.597656 338.375 467.9375 339.519531 462.832031 C 339.519531 462.832031 339.382812 470.933594 339.554688 473.238281 C 339.792969 476.523438 342.007812 482.046875 348.6875 481.664062 C 351.054688 481.53125 352.878906 480.75 354.257812 479.808594 C 356.925781 477.980469 357.777344 475.78125 357.777344 475.78125 L 357.164062 473.964844 C 357.164062 473.964844 355.144531 476.839844 352.574219 476.449219 "/>
<path fill-rule="nonzero" fill="rgb(37.599182%, 0%, 57.598877%)" fill-opacity="1" d="M 592.5625 454.347656 C 592.5625 454.347656 590.757812 461.148438 586.21875 466.980469 C 584.363281 469.367188 581.480469 471.902344 578.964844 473.261719 C 574.921875 475.441406 570.335938 476.609375 565.46875 475.03125 C 560.300781 473.351562 556.710938 467.957031 556.800781 461.445312 C 556.96875 449.222656 569.613281 444.042969 578.171875 440.648438 C 588.019531 436.738281 592.5625 431.402344 592.5625 431.402344 Z M 610.1875 472.976562 C 610.1875 472.976562 608.210938 475.984375 605.640625 475.59375 C 603.070312 475.199219 602.023438 468.84375 602.207031 459.992188 C 602.410156 450.039062 602.28125 429.734375 602.207031 428.203125 C 601.894531 422.085938 598.886719 411.425781 580.699219 409.96875 C 572.839844 409.34375 565.285156 412.042969 560.550781 415.894531 C 554.328125 420.953125 552.132812 427.632812 552.132812 427.632812 L 561.910156 433.453125 L 562.558594 432.152344 C 562.558594 432.152344 561.992188 411.917969 578.753906 411.929688 C 590.785156 411.933594 591.691406 423.734375 591.164062 426.199219 C 590.671875 428.5 589.84375 433.308594 573.640625 438.621094 C 557.433594 443.929688 547.417969 447.4375 546.390625 460.828125 C 545.847656 467.921875 549.207031 473.460938 554.601562 476.832031 C 559.394531 479.828125 565.792969 481.117188 572.480469 480.257812 C 577.109375 479.664062 581.019531 477.519531 584.132812 474.820312 C 588.976562 470.621094 591.886719 465.082031 592.585938 461.976562 C 592.585938 461.976562 592.609375 470.070312 592.621094 472.382812 C 592.628906 475.292969 595.074219 481.191406 601.753906 480.808594 C 608.4375 480.429688 610.84375 474.925781 610.84375 474.925781 Z M 610.1875 472.976562 "/>
<path fill-rule="nonzero" fill="rgb(37.599182%, 0%, 57.598877%)" fill-opacity="1" d="M 460.269531 361.433594 C 464.191406 357.8125 468.230469 354.773438 472.832031 353.25 C 476.835938 351.925781 481.210938 351.285156 486.445312 353.160156 C 490.167969 354.496094 496.804688 357.863281 494.996094 367.839844 C 493.183594 377.820312 488.484375 382.644531 479.78125 386.242188 C 475.210938 388.128906 468.773438 388.371094 461.664062 387.980469 C 455.980469 387.667969 450.269531 386.898438 446.117188 386.0625 C 446.117188 386.0625 447.613281 381.605469 451.003906 374.621094 C 453.609375 369.253906 456.382812 365.023438 460.269531 361.433594 M 471.632812 478.96875 L 471.636719 480.269531 L 492.457031 480.199219 C 492.457031 480.199219 492.453125 479.175781 492.449219 478.898438 C 489.386719 478.449219 487.234375 474.78125 487.222656 471.757812 C 487.21875 470.375 486.722656 431.804688 486.425781 427.203125 C 486.160156 423.089844 484.585938 419.199219 482.238281 416.632812 C 477.179688 411.101562 468.558594 408.988281 460.527344 410.328125 C 455.105469 411.230469 450.558594 414.484375 447.367188 418.1875 C 443.640625 422.515625 441.535156 427.355469 441.535156 427.355469 C 441.644531 426.507812 441.394531 416.398438 442.121094 407.835938 C 442.90625 398.605469 444.667969 390.914062 444.667969 390.914062 C 444.667969 390.914062 458.015625 392.75 470.691406 391.476562 C 478.367188 390.707031 484.066406 388.03125 488.976562 383.953125 C 494.472656 379.386719 498.015625 372.984375 498.023438 365.167969 C 498.03125 358.535156 495.09375 353.753906 489.414062 350.964844 C 483.113281 347.867188 472.144531 346.914062 461.351562 352.945312 C 452.945312 357.640625 447.933594 363.980469 444.089844 370.195312 C 442.65625 372.511719 441.503906 374.75 440.59375 376.746094 C 438.472656 381.402344 437.699219 384.046875 437.699219 384.046875 C 437.699219 384.046875 418.691406 378.109375 407.988281 374.675781 C 397.285156 371.242188 374.027344 362.050781 344.703125 366.09375 C 315.382812 370.136719 306.734375 386.460938 306.734375 386.460938 C 306.652344 387.980469 306.769531 397.234375 306.769531 397.234375 L 308.070312 397.230469 C 308.070312 397.230469 309.070312 394.101562 311.949219 390.710938 C 314.785156 387.375 319.613281 384.019531 322.332031 382.21875 C 329.230469 377.648438 346.527344 373.269531 358.734375 373.636719 C 378.839844 374.246094 395.578125 377.742188 407.578125 381.363281 C 413.675781 383.203125 424.554688 385.828125 431.050781 387.5 C 434.265625 388.324219 436.058594 388.785156 436.058594 388.785156 C 435.5625 390.667969 435.226562 392.921875 434.75 395.316406 C 433.082031 403.710938 432.382812 414.40625 432.402344 419.578125 C 432.425781 426.230469 432.519531 454.058594 432.519531 454.058594 C 432.519531 454.058594 434.714844 448.832031 437.035156 443.554688 C 438.75 439.660156 440.535156 435.734375 441.558594 433.859375 C 443.964844 429.449219 448.160156 413.832031 461.65625 413.625 C 476.667969 413.398438 477.644531 428.941406 477.652344 431.386719 C 477.660156 433.832031 477.765625 466.464844 477.78125 471.140625 C 477.804688 477.714844 471.632812 478.96875 471.632812 478.96875 "/>
<path fill-rule="nonzero" fill="rgb(37.599182%, 0%, 57.598877%)" fill-opacity="1" d="M 442.339844 472.890625 C 441.542969 470.203125 441.566406 442.636719 441.566406 442.636719 C 441.566406 442.636719 439.570312 447.164062 436.417969 454.40625 C 431.429688 465.871094 423.933594 472.65625 420.753906 471.667969 C 419.515625 471.28125 418.792969 470.382812 418.554688 468.613281 C 418.179688 465.84375 418.234375 462.566406 418.234375 462.566406 L 418.214844 460.554688 C 416.855469 463.878906 412.964844 469.414062 409.550781 472.308594 C 402.613281 478.183594 392.351562 481.441406 382.496094 475.046875 C 367.789062 465.503906 368.992188 442.96875 370 434.753906 C 370.621094 429.675781 374.820312 421.21875 381 416.5 C 384.8125 413.585938 389.714844 413.074219 394 413.679688 C 405.222656 415.253906 408.34375 422.738281 408.34375 422.738281 L 408.5 465.949219 C 415.015625 460.128906 418.210938 451.925781 418.203125 450.117188 C 418.199219 448.308594 417.984375 387.890625 417.984375 387.890625 L 408.214844 384.960938 L 408.324219 417.707031 C 408.324219 417.707031 398.265625 406.5625 380.332031 411.949219 C 362.398438 417.332031 356.46875 438.027344 359.003906 453.65625 C 360.871094 465.175781 368.429688 472.65625 375.460938 476.902344 C 379.433594 479.296875 383.914062 480.609375 388.527344 481.085938 C 390.582031 481.296875 393 481.476562 395.527344 481.507812 C 402.511719 481.597656 410.320312 480.597656 416.335938 478.183594 C 428.304688 473.382812 431.90625 465.761719 431.90625 465.761719 C 431.90625 465.761719 432.472656 466.714844 431.929688 471.625 C 431.382812 476.535156 426.746094 479.03125 426.746094 479.03125 L 426.75 480.332031 L 447.8125 480.261719 L 447.808594 478.960938 C 444.710938 478.578125 443.085938 475.410156 442.339844 472.890625 "/>
<path fill-rule="nonzero" fill="rgb(37.599182%, 0%, 57.598877%)" fill-opacity="1" d="M 554.035156 412.664062 L 554.03125 411.363281 L 533.875 411.417969 L 533.878906 412.71875 C 537.902344 412.808594 542.472656 414.269531 540.097656 423.390625 C 538.882812 428.0625 524.796875 460.476562 524.796875 460.476562 C 524.796875 460.476562 510.597656 427.171875 508.523438 421.273438 C 506.449219 415.378906 510.445312 412.675781 510.445312 412.675781 L 510.441406 411.507812 L 489.625 411.578125 L 489.628906 412.878906 C 493.292969 415.015625 495.664062 418.140625 497.460938 420.660156 C 499.261719 423.179688 520.421875 472.96875 520.421875 472.96875 C 520.421875 472.96875 518.140625 478.835938 515.269531 485.433594 C 512.367188 492.089844 509.277344 498.695312 506.480469 502.332031 C 503.152344 506.660156 498.902344 508.933594 495.339844 508.054688 C 488.691406 506.421875 490.921875 493.777344 490.921875 493.777344 L 490.269531 493.128906 L 479.890625 502.921875 C 481.660156 505.949219 488.226562 512.710938 496.835938 511.972656 C 501.84375 511.542969 504.609375 509.960938 507.601562 506.835938 C 510.375 503.945312 513.558594 497.945312 515.636719 493.042969 C 519.535156 483.859375 537.472656 439.847656 543.023438 426.363281 C 548.570312 412.875 554.035156 412.664062 554.035156 412.664062 "/>
<path fill-rule="nonzero" fill="rgb(37.599182%, 37.599182%, 37.599182%)" fill-opacity="1" d="M 219.5 497.019531 L 223.226562 497.019531 C 223.226562 497.019531 221.867188 501.074219 219.839844 503.101562 L 218.296875 503.101562 C 218.296875 503.101562 220.035156 500.234375 219.5 497.019531 "/>
</svg>
