<?xml version="1.0" encoding="UTF-8"?>
<svg xmlns="http://www.w3.org/2000/svg" xmlns:xlink="http://www.w3.org/1999/xlink" width="450" height="450" viewBox="125 125 460 460" role="img" aria-labelledby="aaradhyaStampTitle">
<title id="aaradhyaStampTitle">Aaradhya brand stamp</title>
<path fill-rule="nonzero" fill="rgb(34.21936%, 14.7995%, 54.866028%)" fill-opacity="1" d="M 429.375 428.972656 C 429.375 428.972656 425.257812 435.25 419.894531 434.433594 C 414.535156 433.617188 412.34375 420.359375 412.726562 401.886719 C 413.15625 381.132812 412.890625 338.769531 412.726562 335.578125 C 412.371094 328.523438 410.214844 318.570312 401.949219 310.570312 C 399.144531 307.855469 395.632812 305.363281 391.25 303.285156 C 386.929688 301.242188 378.089844 298.984375 371.304688 298.265625 C 372.640625 299.707031 375.449219 302.746094 377.222656 304.730469 C 381.453125 306.742188 384.503906 309.363281 386.085938 311.398438 C 389.796875 316.167969 391.472656 321.867188 392.140625 326.53125 C 392.4375 328.460938 392.363281 328.972656 392.503906 330.335938 C 392.527344 330.867188 392.542969 331.382812 392.542969 331.84375 C 392.542969 338.273438 392.617188 342.257812 392.617188 342.257812 L 392.617188 384.15625 C 392.617188 384.15625 387.414062 403.125 378.648438 415.898438 C 375.078125 421.097656 367.402344 428.636719 362.460938 431.96875 C 360.960938 432.980469 358.484375 434.054688 356.28125 434.746094 C 354.078125 435.4375 351.675781 436.195312 348.632812 436.535156 C 344.4375 437.160156 340.3125 436.25 336.867188 434.269531 C 330.738281 430.746094 326.773438 423.835938 328.433594 416.1875 C 328.453125 416.097656 328.472656 416.011719 328.492188 415.925781 C 329.984375 409.417969 333.863281 404.28125 338.921875 400.160156 C 344.15625 395.902344 349.683594 391.996094 355.183594 388.066406 C 361.855469 383.304688 368.328125 378.339844 373.25 371.699219 C 378.933594 364.039062 382.179688 355.617188 380.902344 345.867188 C 380.832031 345.3125 380.664062 344.765625 380.4375 343.742188 C 379.054688 349.484375 376.03125 354.800781 371.875 359.425781 C 365.554688 366.464844 357.796875 371.640625 349.800781 376.5625 C 343.320312 380.542969 336.730469 384.421875 330.640625 388.945312 C 323.816406 394.011719 319.203125 400.921875 317.421875 409.316406 C 316.644531 412.980469 316.703125 416.824219 316.417969 420.140625 C 313.859375 413.769531 313.457031 406.792969 315.703125 399.75 C 318.460938 391.109375 324.179688 384.664062 331.738281 379.976562 C 338.585938 375.730469 345.808594 372.085938 352.847656 368.140625 C 359.925781 364.175781 366.488281 359.539062 371.929688 353.480469 C 374.097656 351.066406 376.078125 348.523438 377.242188 344.980469 C 376.578125 345.492188 376.328125 345.648438 376.070312 345.910156 C 372.597656 349.40625 365.640625 353.410156 361.058594 355.265625 C 353.886719 358.175781 346.625 360.867188 339.359375 363.535156 C 333.9375 365.527344 328.5625 367.601562 323.492188 370.246094 C 323.84375 369.929688 324.21875 369.527344 324.5625 369.242188 C 333.523438 361.757812 344.085938 357.402344 354.621094 352.355469 C 363.226562 348.234375 372.074219 344.722656 376.324219 338.59375 C 376.953125 337.683594 371.257812 330.667969 370.535156 327.625 C 369.171875 321.890625 371.328125 316.539062 375.039062 311.847656 C 377.039062 309.320312 376.601562 307.105469 374.425781 304.785156 C 372.523438 302.761719 370.726562 300.640625 368.519531 298.15625 C 365.042969 300.203125 360.929688 302.28125 357.203125 304.914062 C 353.28125 307.691406 350.238281 311.351562 349.117188 316.253906 C 348.605469 318.480469 348.648438 320.617188 349.949219 322.847656 C 350.714844 319.984375 352.921875 316.765625 355.25 314.386719 C 358.691406 310.875 362.449219 308.746094 362.667969 308.621094 C 363.03125 308.410156 364.171875 307.800781 364.835938 307.617188 C 364.503906 307.753906 362.449219 309.320312 362.210938 309.554688 C 359.789062 311.894531 357.703125 314.429688 356.164062 317.234375 C 354.574219 320.136719 353.566406 323.324219 353.375 326.878906 C 353.003906 333.691406 350.042969 337.425781 346.113281 342.726562 C 340.769531 349.941406 335.878906 353.472656 329.117188 359.285156 C 319.589844 367.480469 310.746094 374.371094 304.019531 388.300781 C 303.921875 388.5 303.816406 388.78125 303.714844 389.003906 C 301.558594 393.03125 300.128906 397.386719 299.957031 401.851562 C 299.957031 401.898438 299.960938 401.945312 299.957031 401.996094 C 299.621094 404.429688 299.605469 406.613281 300.121094 408.140625 C 300.792969 415.703125 303.429688 421.90625 309 428.015625 C 315.992188 435.679688 324.582031 441.019531 332.980469 442.984375 C 347.492188 446.375 360.019531 442.679688 365.074219 440.15625 C 367.171875 439.109375 370.824219 436.421875 373.53125 434.078125 C 383.636719 425.316406 391.207031 414.757812 392.660156 408.273438 C 392.660156 408.273438 392.714844 422.917969 392.730469 427.742188 C 392.75 433.808594 397.855469 446.113281 411.789062 445.316406 C 425.726562 444.519531 430.746094 433.039062 430.746094 433.039062 Z M 344.394531 325.445312 C 344.347656 325.371094 344.304688 325.296875 344.261719 325.222656 C 344.277344 325.335938 344.296875 325.449219 344.3125 325.5625 C 344.339844 325.523438 344.367188 325.484375 344.394531 325.445312 M 313.214844 361.460938 C 318.640625 360.128906 323.691406 357.871094 328.394531 354.859375 C 333.34375 351.691406 337.335938 347.585938 340.160156 342.398438 C 340.71875 341.375 341.1875 340.300781 341.695312 339.246094 C 340.425781 340.734375 339.320312 342.304688 338.039062 343.71875 C 333.617188 348.589844 328.0625 351.851562 322.128906 354.453125 C 318.898438 355.867188 315.445312 356.5 311.898438 355.429688 C 306.851562 353.90625 304.980469 349.164062 307.476562 344.558594 C 308.773438 342.171875 310.617188 340.390625 312.753906 338.855469 C 317.789062 335.242188 323.429688 332.808594 329.140625 330.511719 C 330.855469 329.820312 332.59375 329.179688 334.386719 328.492188 C 334.226562 328.363281 334.183594 328.304688 334.125 328.285156 C 326.746094 325.929688 319.707031 322.839844 312.996094 318.9375 C 305.292969 314.457031 298.925781 308.644531 294.164062 301.113281 C 291.007812 296.117188 288.441406 290.851562 287.140625 285.03125 C 286.894531 283.9375 286.457031 282.890625 286.039062 281.613281 C 286.59375 281.839844 286.960938 281.960938 287.304688 282.136719 C 291.140625 284.070312 295.253906 285.15625 299.378906 286.25 C 303.753906 287.410156 308.132812 288.597656 312.429688 290.007812 C 316.140625 291.226562 319.640625 292.960938 322.628906 295.566406 C 327.730469 300.007812 332.011719 305.171875 335.660156 310.832031 C 338.503906 315.234375 341.089844 319.800781 343.785156 324.304688 C 343.753906 324.085938 343.726562 323.867188 343.6875 323.652344 C 342.9375 319.859375 341.386719 316.351562 339.726562 312.898438 C 336.683594 306.570312 333.46875 300.335938 329.265625 294.671875 C 326.652344 291.15625 323.78125 287.871094 320.109375 285.398438 C 313.496094 280.945312 306.089844 278.410156 298.433594 276.476562 C 294.609375 275.507812 290.890625 274.28125 287.714844 271.808594 C 284.253906 269.109375 281.855469 265.566406 279.703125 261.820312 C 279.421875 261.328125 279.109375 260.851562 278.8125 260.371094 C 278.6875 260.398438 278.5625 260.429688 278.4375 260.460938 C 278.160156 263.429688 277.746094 266.390625 277.625 269.363281 C 277.1875 280.441406 279.597656 290.863281 285.21875 300.457031 C 292.070312 312.148438 302.214844 320.097656 314.3125 325.78125 C 315.566406 326.371094 316.832031 326.9375 318.386719 327.652344 C 316.78125 328.496094 315.453125 329.179688 314.140625 329.894531 C 310.484375 331.882812 306.71875 333.703125 303.214844 335.929688 C 299.503906 338.28125 296.742188 341.570312 295.519531 345.921875 C 293.707031 352.359375 296.820312 358.78125 302.796875 361.007812 C 306.21875 362.28125 309.71875 362.320312 313.214844 361.460938 M 350.863281 276.316406 C 348.597656 271.308594 349.613281 267.125 353.382812 263.191406 C 350.402344 262.300781 348.101562 262.652344 346.195312 264.628906 C 344.375 266.515625 343.835938 269.753906 345.035156 272.160156 C 346.167969 274.433594 347.871094 276.066406 350.863281 276.316406 M 345.707031 316.042969 C 346.421875 310.308594 349.375 306.398438 353.691406 303.800781 C 357.8125 301.316406 362.339844 299.515625 366.671875 297.421875 C 366.375 297.335938 365.90625 297.199219 365.4375 297.070312 C 360.769531 295.777344 358.980469 292.421875 360.511719 287.839844 C 361.519531 284.824219 361.867188 284.609375 364.613281 286.242188 C 366.457031 287.335938 367.773438 287.0625 369.246094 285.597656 C 370.859375 284 372.433594 282.535156 372.480469 280 C 372.496094 279.125 373.070312 278.214844 373.523438 277.394531 C 376.195312 272.539062 375.359375 267.792969 371.167969 264.246094 C 367.539062 261.179688 362.15625 260.578125 358.039062 262.777344 C 354.171875 264.84375 352.195312 268.574219 352.84375 272.980469 C 353.085938 274.621094 353.902344 276.171875 354.1875 277.8125 C 354.464844 279.414062 354.828125 281.199219 354.40625 282.695312 C 352.890625 288.054688 349.773438 292.070312 344.035156 293.484375 C 342.976562 293.742188 341.925781 294.050781 340.890625 294.402344 C 337.746094 295.476562 336.566406 297.25 337.398438 300.402344 C 338.898438 306.09375 342.175781 310.878906 345.707031 316.042969 "/>
<path fill-rule="nonzero" fill="rgb(34.735107%, 18.496704%, 58.932495%)" fill-opacity="1" d="M 218.34375 197.65625 L 219.804688 199.339844 C 134.4375 273.421875 125.253906 403.144531 199.339844 488.515625 C 273.421875 573.882812 403.148438 583.0625 488.519531 508.980469 C 573.886719 434.898438 583.066406 305.175781 508.984375 219.804688 C 434.902344 134.4375 305.175781 125.253906 219.804688 199.339844 Z M 354.296875 563.515625 C 295.65625 563.515625 237.335938 539.101562 195.976562 491.4375 C 120.28125 404.210938 129.660156 271.667969 216.882812 195.972656 C 304.109375 120.277344 436.65625 129.664062 512.347656 216.882812 C 588.042969 304.109375 578.660156 436.65625 491.433594 512.347656 C 451.875 546.679688 402.972656 563.515625 354.296875 563.515625 "/>
<path fill-rule="nonzero" fill="rgb(34.735107%, 18.496704%, 58.932495%)" fill-opacity="1" d="M 353.960938 220.480469 C 321.800781 220.480469 291.074219 231.917969 266.546875 253.203125 C 239.582031 276.605469 223.339844 309.109375 220.820312 344.722656 C 218.300781 380.339844 229.800781 414.808594 253.203125 441.773438 C 301.507812 497.441406 386.101562 503.433594 441.773438 455.121094 C 497.441406 406.808594 503.429688 322.214844 455.121094 266.546875 C 431.71875 239.582031 399.214844 223.339844 363.597656 220.820312 C 360.378906 220.589844 357.15625 220.480469 353.960938 220.480469 M 354.25 490.085938 C 316.179688 490.085938 278.308594 474.234375 251.457031 443.292969 C 227.644531 415.855469 215.949219 380.792969 218.511719 344.5625 C 221.078125 308.328125 237.597656 275.261719 265.03125 251.457031 L 265.789062 252.328125 L 265.03125 251.457031 C 292.464844 227.644531 327.5 215.953125 363.761719 218.511719 C 399.992188 221.078125 433.0625 237.597656 456.867188 265.03125 C 506.015625 321.664062 499.921875 407.71875 443.292969 456.867188 C 417.605469 479.160156 385.855469 490.085938 354.25 490.085938 "/>
<path fill-rule="nonzero" fill="rgb(34.735107%, 18.496704%, 58.932495%)" fill-opacity="1" d="M 262.234375 248.234375 C 233.941406 272.789062 216.902344 306.890625 214.257812 344.257812 C 211.613281 381.628906 223.679688 417.789062 248.234375 446.089844 C 272.789062 474.378906 306.890625 491.417969 344.257812 494.0625 C 381.632812 496.730469 417.792969 484.640625 446.089844 460.085938 C 504.496094 409.402344 510.777344 320.644531 460.085938 262.234375 C 409.40625 203.828125 320.648438 197.550781 262.238281 248.234375 Z M 354.378906 498.878906 C 350.914062 498.878906 347.4375 498.753906 343.945312 498.507812 C 305.390625 495.78125 270.203125 478.199219 244.871094 449.003906 C 219.535156 419.8125 207.085938 382.503906 209.8125 343.945312 C 212.542969 305.390625 230.125 270.203125 259.316406 244.871094 C 319.578125 192.578125 411.152344 199.054688 463.453125 259.3125 C 515.75 319.578125 509.269531 411.15625 449.007812 463.453125 C 422.457031 486.492188 389.191406 498.878906 354.378906 498.878906 "/>
<path fill-rule="nonzero" fill="rgb(34.21936%, 14.7995%, 54.866028%)" fill-opacity="1" d="M 289.128906 197.515625 L 281.566406 189.429688 L 282.410156 200.476562 Z M 291.289062 199.847656 L 282.675781 203.644531 L 283.054688 208.503906 L 279.53125 210.058594 L 277.8125 186.210938 L 281.71875 184.484375 L 298.175781 201.832031 L 294.625 203.398438 Z M 291.289062 199.847656 "/>
<path fill-rule="nonzero" fill="rgb(34.21936%, 14.7995%, 54.866028%)" fill-opacity="1" d="M 310.722656 190.207031 L 304.320312 181.179688 L 303.667969 192.238281 Z M 312.546875 192.816406 L 303.503906 195.417969 L 303.21875 200.277344 L 299.515625 201.34375 L 301.035156 177.480469 L 305.136719 176.304688 L 319.101562 195.707031 L 315.371094 196.777344 Z M 312.546875 192.816406 "/>
<path fill-rule="nonzero" fill="rgb(34.21936%, 14.7995%, 54.866028%)" fill-opacity="1" d="M 323.769531 182.894531 L 327.796875 182.28125 C 329.164062 182.074219 330.140625 181.574219 330.726562 180.789062 C 331.316406 180 331.523438 179.027344 331.34375 177.878906 C 331.167969 176.726562 330.695312 175.882812 329.910156 175.332031 C 329.132812 174.785156 328.046875 174.617188 326.664062 174.832031 L 322.632812 175.445312 Z M 333.46875 193.484375 L 326.996094 185.378906 L 324.214844 185.804688 L 325.566406 194.695312 L 321.925781 195.25 L 318.53125 173.027344 L 326.210938 171.859375 C 327.917969 171.597656 329.402344 171.675781 330.679688 172.09375 C 331.949219 172.507812 332.957031 173.171875 333.699219 174.085938 C 334.4375 174.996094 334.902344 176.070312 335.085938 177.308594 C 335.304688 178.757812 335.089844 180.136719 334.425781 181.449219 C 333.765625 182.761719 332.597656 183.761719 330.910156 184.457031 L 337.816406 192.828125 Z M 333.46875 193.484375 "/>
<path fill-rule="nonzero" fill="rgb(34.21936%, 14.7995%, 54.866028%)" fill-opacity="1" d="M 353.863281 184.578125 L 349.964844 174.21875 L 346.523438 184.746094 Z M 354.964844 187.558594 L 345.558594 187.777344 L 344.046875 192.40625 L 340.199219 192.496094 L 347.730469 169.804688 L 351.996094 169.703125 L 360.570312 192.023438 L 356.691406 192.113281 Z M 354.964844 187.558594 "/>
<path fill-rule="nonzero" fill="rgb(34.21936%, 14.7995%, 54.866028%)" fill-opacity="1" d="M 377.230469 188.605469 C 378.785156 187.347656 379.703125 185.433594 379.992188 182.863281 C 380.28125 180.269531 379.8125 178.164062 378.582031 176.550781 C 377.355469 174.9375 375.433594 173.988281 372.816406 173.691406 L 369.1875 173.285156 L 367.347656 189.644531 L 370.984375 190.050781 C 373.597656 190.347656 375.679688 189.863281 377.230469 188.605469 M 379.25 172.769531 C 380.9375 173.882812 382.171875 175.347656 382.957031 177.152344 C 383.742188 178.96875 384.007812 181.011719 383.753906 183.285156 C 383.496094 185.554688 382.789062 187.472656 381.625 189.035156 C 380.46875 190.59375 378.9375 191.722656 377.046875 192.40625 C 375.160156 193.097656 373.027344 193.3125 370.648438 193.042969 L 363.351562 192.222656 L 365.855469 169.882812 L 373.152344 170.699219 C 375.535156 170.972656 377.5625 171.65625 379.25 172.769531 "/>
<path fill-rule="nonzero" fill="rgb(34.21936%, 14.7995%, 54.866028%)" fill-opacity="1" d="M 408.25 177.566406 L 402.75 199.363281 L 399.175781 198.460938 L 401.578125 188.925781 L 391.324219 186.335938 L 388.917969 195.867188 L 385.347656 194.972656 L 390.84375 173.171875 L 394.417969 174.074219 L 392.058594 183.421875 L 402.316406 186.011719 L 404.675781 176.664062 Z M 408.25 177.566406 "/>
<path fill-rule="nonzero" fill="rgb(34.21936%, 14.7995%, 54.866028%)" fill-opacity="1" d="M 430.394531 185.886719 L 418.238281 196.511719 L 415.261719 204.101562 L 411.828125 202.753906 L 414.804688 195.164062 L 413.074219 179.101562 L 416.898438 180.597656 L 417.722656 192.769531 L 426.597656 184.394531 Z M 430.394531 185.886719 "/>
<path fill-rule="nonzero" fill="rgb(34.21936%, 14.7995%, 54.866028%)" fill-opacity="1" d="M 438.808594 207.09375 L 440.605469 196.167969 L 432.363281 203.574219 Z M 438.273438 210.230469 L 430.011719 205.722656 L 426.390625 208.976562 L 423.019531 207.132812 L 440.871094 191.230469 L 444.617188 193.277344 L 440.898438 216.894531 L 437.492188 215.039062 Z M 438.273438 210.230469 "/>
<path fill-rule="nonzero" fill="rgb(34.21936%, 14.7995%, 54.866028%)" fill-opacity="1" d="M 530.027344 295.8125 L 506.738281 298.550781 L 505.097656 294.71875 L 518.867188 283.667969 L 501.253906 285.773438 L 499.589844 281.988281 L 517.765625 267.246094 L 519.308594 270.84375 L 504.324219 282.347656 L 523.136719 279.761719 L 524.769531 283.566406 L 509.886719 295.058594 L 528.464844 292.183594 Z M 530.027344 295.8125 "/>
<path fill-rule="nonzero" fill="rgb(34.21936%, 14.7995%, 54.866028%)" fill-opacity="1" d="M 516.777344 319.8125 C 517.703125 320.789062 518.859375 321.453125 520.242188 321.800781 C 521.617188 322.152344 523.109375 322.132812 524.730469 321.753906 C 526.34375 321.371094 527.683594 320.714844 528.75 319.792969 C 529.816406 318.859375 530.542969 317.75 530.921875 316.464844 C 531.308594 315.179688 531.328125 313.808594 530.984375 312.363281 C 530.640625 310.914062 530.011719 309.699219 529.09375 308.71875 C 528.171875 307.742188 527.03125 307.078125 525.660156 306.726562 C 524.296875 306.371094 522.804688 306.390625 521.183594 306.773438 C 519.570312 307.152344 518.226562 307.808594 517.148438 308.742188 C 516.070312 309.671875 515.335938 310.78125 514.945312 312.066406 C 514.550781 313.359375 514.523438 314.730469 514.871094 316.175781 C 515.214844 317.621094 515.851562 318.832031 516.777344 319.8125 M 511.855469 310.957031 C 512.410156 309.019531 513.417969 307.347656 514.890625 305.949219 C 516.363281 304.550781 518.175781 303.59375 520.3125 303.089844 C 522.457031 302.582031 524.492188 302.628906 526.429688 303.21875 C 528.367188 303.8125 530.007812 304.851562 531.371094 306.339844 C 532.730469 307.824219 533.648438 309.582031 534.132812 311.617188 C 534.617188 313.671875 534.582031 315.671875 534.035156 317.609375 C 533.484375 319.542969 532.476562 321.203125 531.007812 322.59375 C 529.542969 323.980469 527.738281 324.933594 525.601562 325.4375 C 523.460938 325.941406 521.417969 325.902344 519.476562 325.320312 C 517.527344 324.742188 515.882812 323.707031 514.519531 322.222656 C 513.160156 320.738281 512.238281 318.96875 511.753906 316.914062 C 511.269531 314.878906 511.304688 312.890625 511.855469 310.957031 "/>
<path fill-rule="nonzero" fill="rgb(34.21936%, 14.7995%, 54.866028%)" fill-opacity="1" d="M 539.183594 352.742188 L 516.757812 354.355469 L 516.496094 350.675781 L 531.851562 349.570312 L 516.003906 343.839844 L 515.824219 341.289062 L 530.683594 333.3125 L 515.328125 334.417969 L 515.058594 330.742188 L 537.484375 329.128906 L 537.765625 333.089844 L 520.75 342.234375 L 538.894531 348.804688 Z M 539.183594 352.742188 "/>
<path fill-rule="nonzero" fill="rgb(34.21936%, 14.7995%, 54.866028%)" fill-opacity="1" d="M 535.621094 363.417969 L 529.035156 363.003906 L 528.542969 370.75 L 525.542969 370.5625 L 526.035156 362.808594 L 519.15625 362.375 L 518.605469 371.09375 L 515.601562 370.902344 L 516.386719 358.507812 L 538.855469 359.933594 L 538.070312 372.324219 L 535.066406 372.132812 Z M 535.621094 363.417969 "/>
<path fill-rule="nonzero" fill="rgb(34.21936%, 14.7995%, 54.866028%)" fill-opacity="1" d="M 511.945312 392.917969 L 512.617188 389.292969 L 531.136719 381.433594 L 514.628906 378.382812 L 515.296875 374.757812 L 537.4375 378.839844 L 536.765625 382.46875 L 518.277344 390.339844 L 534.753906 393.378906 L 534.085938 397.003906 Z M 511.945312 392.917969 "/>
<path fill-rule="nonzero" fill="rgb(34.21936%, 14.7995%, 54.866028%)" fill-opacity="1" d="M 532.074219 403.789062 L 530.984375 407.648438 L 524.503906 402.289062 L 525.207031 399.796875 Z M 532.074219 403.789062 "/>
<path fill-rule="nonzero" fill="rgb(34.21936%, 14.7995%, 54.866028%)" fill-opacity="1" d="M 508.023438 407.53125 C 508.941406 406.585938 509.976562 405.960938 511.125 405.652344 C 512.273438 405.339844 513.457031 405.414062 514.667969 405.871094 L 513.292969 409.5625 C 512.347656 409.308594 511.46875 409.386719 510.640625 409.804688 C 509.824219 410.21875 509.195312 411.007812 508.765625 412.160156 C 508.320312 413.351562 508.265625 414.390625 508.589844 415.273438 C 508.914062 416.148438 509.535156 416.761719 510.445312 417.101562 C 511.148438 417.363281 511.808594 417.371094 512.402344 417.121094 C 513.003906 416.871094 513.535156 416.492188 514.011719 415.960938 C 514.484375 415.433594 515.066406 414.679688 515.75 413.695312 C 516.625 412.457031 517.414062 411.480469 518.113281 410.757812 C 518.800781 410.039062 519.65625 409.523438 520.671875 409.210938 C 521.6875 408.902344 522.847656 408.988281 524.164062 409.476562 C 525.375 409.933594 526.320312 410.628906 527.003906 411.570312 C 527.691406 412.515625 528.070312 413.625 528.144531 414.898438 C 528.226562 416.171875 527.996094 417.523438 527.460938 418.957031 C 526.699219 420.996094 525.566406 422.480469 524.058594 423.40625 C 522.554688 424.324219 520.882812 424.527344 519.054688 424.007812 L 520.476562 420.1875 C 521.265625 420.414062 522.0625 420.292969 522.855469 419.832031 C 523.648438 419.371094 524.25 418.589844 524.65625 417.496094 C 525.027344 416.507812 525.078125 415.601562 524.804688 414.792969 C 524.53125 413.976562 523.921875 413.394531 522.972656 413.039062 C 522.324219 412.796875 521.71875 412.796875 521.15625 413.039062 C 520.601562 413.277344 520.085938 413.652344 519.617188 414.167969 C 519.144531 414.683594 518.574219 415.414062 517.902344 416.359375 C 517 417.609375 516.191406 418.605469 515.476562 419.335938 C 514.765625 420.078125 513.894531 420.605469 512.867188 420.917969 C 511.839844 421.242188 510.660156 421.148438 509.328125 420.65625 C 508.257812 420.253906 507.351562 419.585938 506.621094 418.660156 C 505.882812 417.730469 505.433594 416.605469 505.265625 415.292969 C 505.105469 413.976562 505.300781 412.570312 505.855469 411.078125 C 506.382812 409.660156 507.109375 408.480469 508.023438 407.53125 "/>
<path fill-rule="nonzero" fill="rgb(34.21936%, 14.7995%, 54.866028%)" fill-opacity="1" d="M 512.984375 438.332031 C 513.953125 440.105469 514.410156 442 514.34375 444.015625 C 514.277344 446.023438 513.707031 447.929688 512.628906 449.71875 C 511.398438 451.773438 509.792969 453.296875 507.824219 454.28125 C 505.855469 455.28125 503.734375 455.582031 501.453125 455.191406 L 503.734375 451.390625 C 505.050781 451.503906 506.226562 451.269531 507.253906 450.679688 C 508.292969 450.09375 509.15625 449.214844 509.859375 448.050781 C 510.621094 446.78125 511.019531 445.46875 511.050781 444.128906 C 511.074219 442.785156 510.722656 441.511719 509.984375 440.304688 C 509.257812 439.09375 508.179688 438.066406 506.757812 437.207031 C 505.328125 436.351562 503.914062 435.882812 502.503906 435.800781 C 501.09375 435.722656 499.796875 436.003906 498.613281 436.652344 C 497.4375 437.300781 496.457031 438.261719 495.691406 439.535156 C 494.992188 440.703125 494.625 441.875 494.589844 443.066406 C 494.558594 444.253906 494.898438 445.402344 495.613281 446.511719 L 493.328125 450.308594 C 491.914062 448.476562 491.191406 446.457031 491.148438 444.261719 C 491.113281 442.0625 491.714844 439.9375 492.949219 437.890625 C 494.035156 436.078125 495.449219 434.675781 497.191406 433.679688 C 498.933594 432.691406 500.816406 432.207031 502.835938 432.226562 C 504.863281 432.25 506.820312 432.828125 508.703125 433.960938 C 510.589844 435.097656 512.015625 436.550781 512.984375 438.332031 "/>
<path fill-rule="nonzero" fill="rgb(34.21936%, 14.7995%, 54.866028%)" fill-opacity="1" d="M 485.460938 454.515625 L 480.800781 460.523438 L 478.449219 458.699219 L 485.367188 449.777344 L 503.132812 463.558594 L 500.871094 466.472656 Z M 485.460938 454.515625 "/>
<path fill-rule="nonzero" fill="rgb(34.21936%, 14.7995%, 54.866028%)" fill-opacity="1" d="M 469.910156 473.566406 C 469.582031 474.871094 469.632812 476.199219 470.070312 477.554688 C 470.507812 478.910156 471.316406 480.167969 472.503906 481.335938 C 473.683594 482.496094 474.953125 483.285156 476.304688 483.695312 C 477.65625 484.101562 478.980469 484.125 480.273438 483.769531 C 481.566406 483.40625 482.738281 482.695312 483.78125 481.636719 C 484.824219 480.574219 485.515625 479.398438 485.855469 478.097656 C 486.195312 476.800781 486.152344 475.476562 485.722656 474.132812 C 485.292969 472.785156 484.488281 471.53125 483.304688 470.363281 C 482.121094 469.195312 480.847656 468.40625 479.492188 467.992188 C 478.125 467.574219 476.796875 467.542969 475.496094 467.894531 C 474.195312 468.25 473.023438 468.953125 471.980469 470.015625 C 470.933594 471.078125 470.246094 472.261719 469.910156 473.566406 M 474.796875 464.683594 C 476.730469 464.121094 478.679688 464.09375 480.652344 464.597656 C 482.621094 465.101562 484.390625 466.125 485.960938 467.667969 C 487.527344 469.207031 488.570312 470.960938 489.097656 472.917969 C 489.625 474.871094 489.617188 476.820312 489.085938 478.761719 C 488.550781 480.699219 487.550781 482.414062 486.082031 483.90625 C 484.605469 485.410156 482.890625 486.445312 480.960938 487.015625 C 479.027344 487.574219 477.082031 487.601562 475.128906 487.101562 C 473.171875 486.59375 471.410156 485.570312 469.84375 484.027344 C 468.277344 482.484375 467.222656 480.734375 466.683594 478.78125 C 466.144531 476.824219 466.136719 474.878906 466.671875 472.9375 C 467.203125 470.996094 468.210938 469.277344 469.699219 467.769531 C 471.167969 466.277344 472.863281 465.25 474.796875 464.683594 "/>
<path fill-rule="nonzero" fill="rgb(34.21936%, 14.7995%, 54.866028%)" fill-opacity="1" d="M 461.839844 504.484375 L 459.984375 502.117188 L 464.695312 498.425781 L 452.683594 483.105469 L 455.585938 480.828125 L 467.597656 496.152344 L 472.328125 492.441406 L 474.1875 494.8125 Z M 461.839844 504.484375 "/>
<path fill-rule="nonzero" fill="rgb(34.21936%, 14.7995%, 54.866028%)" fill-opacity="1" d="M 441.6875 517.132812 L 430.097656 497.871094 L 433.257812 495.964844 L 438.324219 504.398438 L 447.386719 498.941406 L 442.320312 490.515625 L 445.480469 488.613281 L 457.066406 507.875 L 453.90625 509.777344 L 448.941406 501.519531 L 439.878906 506.96875 L 444.84375 515.230469 Z M 441.6875 517.132812 "/>
<path fill-rule="nonzero" fill="rgb(34.21936%, 14.7995%, 54.866028%)" fill-opacity="1" d="M 432.5625 521.496094 L 422.816406 501.242188 L 426.136719 499.636719 L 435.886719 519.898438 Z M 432.5625 521.496094 "/>
<path fill-rule="nonzero" fill="rgb(34.21936%, 14.7995%, 54.866028%)" fill-opacity="1" d="M 401.566406 509.65625 L 405.027344 508.390625 L 421.238281 520.3125 L 415.441406 504.558594 L 418.902344 503.285156 L 426.671875 524.414062 L 423.210938 525.6875 L 407.015625 513.789062 L 412.804688 529.515625 L 409.339844 530.789062 Z M 401.566406 509.65625 "/>
<path fill-rule="nonzero" fill="rgb(34.21936%, 14.7995%, 54.866028%)" fill-opacity="1" d="M 385.050781 529.859375 C 385.851562 530.84375 386.816406 531.503906 387.945312 531.847656 C 389.074219 532.195312 390.304688 532.230469 391.640625 531.945312 C 393.089844 531.640625 394.324219 531.039062 395.328125 530.148438 C 396.324219 529.25 397.019531 528.132812 397.410156 526.796875 C 397.804688 525.457031 397.828125 523.996094 397.496094 522.414062 C 397.160156 520.828125 396.542969 519.503906 395.644531 518.425781 C 394.746094 517.347656 393.660156 516.597656 392.382812 516.183594 C 391.101562 515.773438 389.738281 515.71875 388.285156 516.027344 C 386.316406 516.4375 384.84375 517.320312 383.851562 518.679688 C 382.855469 520.03125 382.421875 521.679688 382.546875 523.613281 L 390.800781 521.875 L 391.410156 524.75 L 379.289062 527.308594 L 378.691406 524.492188 C 378.566406 522.734375 378.839844 521.03125 379.523438 519.394531 C 380.199219 517.75 381.238281 516.339844 382.628906 515.152344 C 384.023438 513.96875 385.675781 513.171875 387.597656 512.765625 C 389.664062 512.332031 391.652344 512.414062 393.566406 513.011719 C 395.472656 513.613281 397.113281 514.660156 398.476562 516.15625 C 399.839844 517.65625 400.746094 519.476562 401.199219 521.632812 C 401.652344 523.789062 401.558594 525.824219 400.914062 527.742188 C 400.273438 529.664062 399.191406 531.285156 397.675781 532.605469 C 396.164062 533.929688 394.378906 534.804688 392.328125 535.242188 C 389.988281 535.730469 387.78125 535.59375 385.714844 534.832031 C 383.648438 534.0625 381.984375 532.714844 380.714844 530.78125 Z M 385.050781 529.859375 "/>
<path fill-rule="nonzero" fill="rgb(34.21936%, 14.7995%, 54.866028%)" fill-opacity="1" d="M 362.3125 529.304688 L 357.753906 529.402344 C 356.542969 529.429688 355.605469 529.726562 354.9375 530.292969 C 354.273438 530.855469 353.949219 531.660156 353.972656 532.691406 C 353.992188 533.707031 354.355469 534.492188 355.046875 535.046875 C 355.738281 535.601562 356.683594 535.871094 357.898438 535.839844 L 362.453125 535.734375 Z M 354.183594 520.359375 C 353.484375 520.980469 353.152344 521.828125 353.171875 522.90625 C 353.199219 524.003906 353.597656 524.871094 354.363281 525.5 C 355.132812 526.128906 356.144531 526.433594 357.394531 526.40625 L 362.242188 526.296875 L 362.085938 519.28125 L 357.105469 519.390625 C 355.855469 519.417969 354.882812 519.738281 354.183594 520.359375 M 350.820312 526.164062 C 349.957031 525.125 349.511719 523.9375 349.476562 522.601562 C 349.449219 521.460938 349.722656 520.421875 350.300781 519.496094 C 350.867188 518.566406 351.710938 517.824219 352.824219 517.269531 C 353.929688 516.714844 355.226562 516.421875 356.71875 516.390625 L 365.703125 516.191406 L 366.207031 538.660156 L 357.640625 538.855469 C 356.109375 538.890625 354.785156 538.660156 353.671875 538.164062 C 352.5625 537.671875 351.71875 536.996094 351.136719 536.136719 C 350.5625 535.273438 350.253906 534.304688 350.234375 533.230469 C 350.207031 531.933594 350.527344 530.847656 351.195312 529.972656 C 351.867188 529.09375 352.78125 528.441406 353.933594 528.003906 C 352.722656 527.8125 351.683594 527.203125 350.820312 526.164062 "/>
<path fill-rule="nonzero" fill="rgb(34.21936%, 14.7995%, 54.866028%)" fill-opacity="1" d="M 341.167969 527.898438 L 337.113281 527.496094 C 335.742188 527.359375 334.671875 527.601562 333.90625 528.214844 C 333.144531 528.835938 332.703125 529.726562 332.589844 530.882812 C 332.476562 532.039062 332.726562 532.980469 333.351562 533.703125 C 333.972656 534.421875 334.980469 534.855469 336.378906 534.992188 L 340.425781 535.394531 Z M 334.394531 515.230469 L 338.660156 524.691406 L 341.464844 524.964844 L 342.347656 516.015625 L 346.015625 516.378906 L 343.804688 538.753906 L 336.078125 537.984375 C 334.363281 537.816406 332.941406 537.375 331.804688 536.65625 C 330.675781 535.9375 329.863281 535.046875 329.371094 533.980469 C 328.882812 532.910156 328.699219 531.753906 328.820312 530.507812 C 328.96875 529.050781 329.523438 527.765625 330.488281 526.660156 C 331.449219 525.554688 332.835938 524.871094 334.636719 524.617188 L 330.019531 514.800781 Z M 334.394531 515.230469 "/>
<path fill-rule="nonzero" fill="rgb(34.21936%, 14.7995%, 54.866028%)" fill-opacity="1" d="M 312.542969 518.855469 L 313.761719 529.859375 L 319.699219 520.5 Z M 312.207031 515.695312 L 321.378906 517.804688 L 323.980469 513.683594 L 327.734375 514.550781 L 314.84375 534.683594 L 310.683594 533.726562 L 307.875 509.984375 L 311.660156 510.855469 Z M 312.207031 515.695312 "/>
<path fill-rule="nonzero" fill="rgb(34.21936%, 14.7995%, 54.866028%)" fill-opacity="1" d="M 287.882812 502.535156 L 291.332031 503.847656 L 295.738281 523.476562 L 301.703125 507.785156 L 305.144531 509.097656 L 297.148438 530.140625 L 293.703125 528.828125 L 289.285156 509.226562 L 283.332031 524.890625 L 279.882812 523.578125 Z M 287.882812 502.535156 "/>
<path fill-rule="nonzero" fill="rgb(34.21936%, 14.7995%, 54.866028%)" fill-opacity="1" d="M 269.953125 498.867188 C 268.039062 499.4375 266.457031 500.859375 265.210938 503.128906 C 263.953125 505.414062 263.59375 507.535156 264.113281 509.496094 C 264.644531 511.457031 266.054688 513.070312 268.363281 514.335938 L 271.566406 516.09375 L 279.484375 501.664062 L 276.277344 499.898438 C 273.972656 498.632812 271.867188 498.292969 269.953125 498.867188 M 262.058594 512.742188 C 260.921875 511.074219 260.335938 509.25 260.300781 507.277344 C 260.261719 505.300781 260.792969 503.308594 261.890625 501.304688 C 262.992188 499.304688 264.375 497.796875 266.050781 496.796875 C 267.714844 495.796875 269.554688 495.332031 271.566406 495.417969 C 273.574219 495.496094 275.628906 496.117188 277.730469 497.265625 L 284.160156 500.796875 L 273.351562 520.5 L 266.914062 516.972656 C 264.816406 515.824219 263.199219 514.414062 262.058594 512.742188 "/>
<path fill-rule="nonzero" fill="rgb(34.21936%, 14.7995%, 54.866028%)" fill-opacity="1" d="M 184.273438 418.433594 L 190.480469 416.1875 L 187.835938 408.886719 L 190.660156 407.863281 L 193.304688 415.167969 L 199.785156 412.816406 L 196.808594 404.605469 L 199.636719 403.578125 L 203.867188 415.257812 L 182.703125 422.925781 L 178.472656 411.25 L 181.300781 410.226562 Z M 184.273438 418.433594 "/>
<path fill-rule="nonzero" fill="rgb(34.21936%, 14.7995%, 54.866028%)" fill-opacity="1" d="M 197.125 396.753906 C 196.894531 398.046875 196.390625 399.144531 195.609375 400.046875 C 194.832031 400.949219 193.8125 401.546875 192.554688 401.851562 L 191.625 398.019531 C 192.542969 397.707031 193.230469 397.148438 193.679688 396.335938 C 194.128906 395.535156 194.203125 394.53125 193.914062 393.335938 C 193.613281 392.101562 193.082031 391.207031 192.3125 390.660156 C 191.550781 390.117188 190.699219 389.957031 189.753906 390.1875 C 189.019531 390.363281 188.476562 390.722656 188.121094 391.265625 C 187.761719 391.804688 187.535156 392.429688 187.441406 393.128906 C 187.34375 393.828125 187.285156 394.777344 187.265625 395.980469 C 187.238281 397.5 187.132812 398.746094 186.964844 399.734375 C 186.792969 400.71875 186.375 401.625 185.707031 402.453125 C 185.046875 403.277344 184.035156 403.859375 182.667969 404.1875 C 181.417969 404.492188 180.234375 404.449219 179.140625 404.046875 C 178.042969 403.648438 177.109375 402.945312 176.328125 401.933594 C 175.554688 400.925781 174.984375 399.675781 174.625 398.191406 C 174.105469 396.078125 174.214844 394.207031 174.945312 392.601562 C 175.671875 390.992188 176.945312 389.890625 178.753906 389.296875 L 179.714844 393.253906 C 178.933594 393.511719 178.34375 394.054688 177.945312 394.886719 C 177.546875 395.714844 177.488281 396.695312 177.761719 397.824219 C 178.007812 398.851562 178.476562 399.628906 179.160156 400.148438 C 179.84375 400.667969 180.675781 400.8125 181.65625 400.574219 C 182.328125 400.414062 182.828125 400.074219 183.15625 399.558594 C 183.488281 399.046875 183.707031 398.445312 183.808594 397.757812 C 183.898438 397.066406 183.964844 396.144531 183.992188 394.976562 C 184.039062 393.4375 184.152344 392.160156 184.328125 391.152344 C 184.507812 390.144531 184.929688 389.222656 185.605469 388.378906 C 186.277344 387.542969 187.304688 386.953125 188.683594 386.617188 C 189.796875 386.34375 190.917969 386.390625 192.046875 386.75 C 193.175781 387.105469 194.179688 387.78125 195.050781 388.78125 C 195.929688 389.777344 196.558594 391.054688 196.929688 392.601562 C 197.289062 394.070312 197.355469 395.453125 197.125 396.753906 "/>
<path fill-rule="nonzero" fill="rgb(34.21936%, 14.7995%, 54.866028%)" fill-opacity="1" d="M 170.144531 369.863281 L 173.128906 369.484375 L 173.882812 375.421875 L 193.199219 372.976562 L 193.664062 376.636719 L 174.34375 379.078125 L 175.097656 385.046875 L 172.117188 385.425781 Z M 170.144531 369.863281 "/>
<path fill-rule="nonzero" fill="rgb(34.21936%, 14.7995%, 54.866028%)" fill-opacity="1" d="M 191.957031 363.929688 C 191.53125 364.40625 190.980469 364.65625 190.3125 364.691406 C 189.644531 364.726562 189.074219 364.523438 188.597656 364.09375 C 188.125 363.664062 187.867188 363.113281 187.839844 362.445312 C 187.808594 361.800781 188.011719 361.242188 188.4375 360.765625 C 188.871094 360.292969 189.421875 360.039062 190.085938 360.007812 C 190.75 359.976562 191.324219 360.171875 191.796875 360.605469 C 192.269531 361.035156 192.527344 361.570312 192.554688 362.222656 C 192.585938 362.890625 192.390625 363.460938 191.957031 363.929688 M 178.390625 364.582031 C 177.960938 365.054688 177.40625 365.3125 176.742188 365.339844 C 176.074219 365.375 175.503906 365.171875 175.03125 364.746094 C 174.554688 364.3125 174.300781 363.765625 174.269531 363.097656 C 174.242188 362.449219 174.4375 361.894531 174.871094 361.417969 C 175.300781 360.941406 175.847656 360.6875 176.515625 360.65625 C 177.1875 360.625 177.753906 360.820312 178.230469 361.257812 C 178.707031 361.683594 178.953125 362.226562 178.988281 362.871094 C 179.015625 363.539062 178.820312 364.109375 178.390625 364.582031 "/>
<path fill-rule="nonzero" fill="rgb(34.21936%, 14.7995%, 54.866028%)" fill-opacity="1" d="M 187.246094 346.097656 C 185.625 343.886719 184.296875 342.148438 183.242188 340.855469 C 182.191406 339.574219 181.074219 338.484375 179.890625 337.582031 C 178.707031 336.6875 177.496094 336.191406 176.25 336.089844 C 174.957031 335.980469 173.921875 336.207031 173.140625 336.757812 C 172.359375 337.316406 171.917969 338.246094 171.8125 339.554688 C 171.710938 340.820312 172.03125 341.839844 172.78125 342.601562 C 173.53125 343.367188 174.582031 343.828125 175.929688 343.980469 L 175.640625 347.523438 C 173.199219 347.261719 171.378906 346.375 170.195312 344.859375 C 169.011719 343.347656 168.503906 341.503906 168.6875 339.335938 C 168.871094 336.992188 169.667969 335.210938 171.0625 333.996094 C 172.460938 332.777344 174.234375 332.261719 176.382812 332.433594 C 177.929688 332.554688 179.386719 333.070312 180.75 333.972656 C 182.121094 334.871094 183.320312 335.910156 184.363281 337.085938 C 185.398438 338.265625 186.59375 339.75 187.941406 341.550781 L 189.109375 343.105469 L 189.945312 332.882812 L 193.007812 333.132812 L 191.730469 348.800781 L 189.054688 348.585938 Z M 187.246094 346.097656 "/>
<path fill-rule="nonzero" fill="rgb(34.21936%, 14.7995%, 54.866028%)" fill-opacity="1" d="M 179.988281 314.746094 C 178.757812 314.726562 177.703125 314.984375 176.816406 315.507812 C 175.929688 316.035156 175.351562 316.964844 175.085938 318.296875 C 174.820312 319.632812 174.992188 320.707031 175.605469 321.539062 C 176.222656 322.363281 177.097656 323.007812 178.238281 323.464844 C 179.382812 323.921875 180.808594 324.324219 182.523438 324.671875 C 184.292969 325.023438 185.804688 325.21875 187.050781 325.25 C 188.300781 325.28125 189.363281 325.023438 190.242188 324.484375 C 191.117188 323.949219 191.691406 323.011719 191.957031 321.679688 C 192.222656 320.347656 192.054688 319.261719 191.457031 318.429688 C 190.851562 317.59375 189.972656 316.945312 188.804688 316.5 C 187.640625 316.042969 186.175781 315.636719 184.402344 315.28125 C 182.6875 314.9375 181.214844 314.761719 179.988281 314.746094 M 173.597656 324.644531 C 171.785156 322.996094 171.183594 320.660156 171.789062 317.636719 C 172.394531 314.609375 173.855469 312.6875 176.160156 311.867188 C 178.472656 311.042969 181.453125 310.996094 185.109375 311.734375 C 188.8125 312.472656 191.578125 313.667969 193.410156 315.328125 C 195.246094 316.976562 195.859375 319.316406 195.257812 322.339844 C 194.648438 325.367188 193.183594 327.289062 190.851562 328.105469 C 188.523438 328.925781 185.507812 328.960938 181.804688 328.222656 C 178.148438 327.488281 175.414062 326.296875 173.597656 324.644531 "/>
<path fill-rule="nonzero" fill="rgb(34.21936%, 14.7995%, 54.866028%)" fill-opacity="1" d="M 193.734375 307.421875 C 192.671875 304.898438 191.777344 302.890625 191.050781 301.398438 C 190.332031 299.898438 189.496094 298.578125 188.550781 297.429688 C 187.613281 296.285156 186.542969 295.515625 185.359375 295.132812 C 184.128906 294.726562 183.070312 294.707031 182.179688 295.066406 C 181.296875 295.421875 180.648438 296.222656 180.238281 297.476562 C 179.84375 298.6875 179.921875 299.746094 180.472656 300.667969 C 181.023438 301.582031 181.9375 302.269531 183.21875 302.734375 L 182.113281 306.117188 C 179.796875 305.292969 178.238281 304.007812 177.433594 302.261719 C 176.632812 300.515625 176.570312 298.605469 177.246094 296.535156 C 177.96875 294.300781 179.160156 292.75 180.800781 291.894531 C 182.441406 291.03125 184.289062 290.933594 186.335938 291.605469 C 187.8125 292.085938 189.109375 292.921875 190.230469 294.113281 C 191.351562 295.3125 192.277344 296.601562 193.015625 297.984375 C 193.753906 299.371094 194.570312 301.097656 195.460938 303.15625 L 196.242188 304.941406 L 199.421875 295.191406 L 202.34375 296.144531 L 197.46875 311.089844 L 194.917969 310.257812 Z M 193.734375 307.421875 "/>
<path fill-rule="nonzero" fill="rgb(34.21936%, 14.7995%, 54.866028%)" fill-opacity="1" d="M 195.546875 284.183594 C 195.875 285.347656 196.71875 286.242188 198.0625 286.867188 C 199.414062 287.488281 200.667969 287.597656 201.816406 287.1875 C 202.964844 286.785156 203.859375 285.882812 204.503906 284.496094 C 205.070312 283.265625 205.144531 282.113281 204.710938 281.046875 C 204.273438 279.976562 203.425781 279.152344 202.148438 278.566406 C 200.816406 277.949219 199.601562 277.804688 198.484375 278.132812 C 197.367188 278.460938 196.503906 279.300781 195.875 280.652344 C 195.324219 281.847656 195.210938 283.023438 195.546875 284.183594 M 189.871094 274.984375 C 189.160156 275.347656 188.566406 276.035156 188.097656 277.054688 C 187.378906 278.601562 187.441406 280.03125 188.269531 281.335938 C 189.101562 282.648438 190.882812 283.957031 193.597656 285.265625 C 192.976562 284.355469 192.65625 283.304688 192.636719 282.109375 C 192.617188 280.914062 192.871094 279.75 193.398438 278.613281 C 193.992188 277.320312 194.796875 276.308594 195.816406 275.582031 C 196.828125 274.851562 197.996094 274.449219 199.308594 274.382812 C 200.621094 274.308594 202.019531 274.617188 203.484375 275.292969 C 204.855469 275.929688 205.953125 276.757812 206.78125 277.796875 C 207.609375 278.832031 208.085938 280.023438 208.21875 281.363281 C 208.339844 282.703125 208.058594 284.121094 207.375 285.609375 C 206.445312 287.621094 205.265625 289 203.847656 289.734375 C 202.425781 290.46875 200.796875 290.6875 198.960938 290.398438 C 197.121094 290.105469 194.992188 289.394531 192.5625 288.277344 C 185.398438 284.964844 182.988281 280.785156 185.324219 275.734375 C 186.222656 273.777344 187.46875 272.480469 189.042969 271.847656 C 190.625 271.207031 192.226562 271.148438 193.867188 271.664062 L 192.441406 274.75 C 191.445312 274.550781 190.582031 274.628906 189.871094 274.984375 "/>
<path fill-rule="nonzero" fill="rgb(34.21936%, 14.7995%, 54.866028%)" fill-opacity="1" d="M 247.8125 465.238281 C 245.917969 463.953125 243.84375 463.03125 241.640625 462.429688 C 239.316406 461.789062 236.972656 461.703125 234.617188 462.265625 C 234.152344 462.375 233.695312 462.527344 233.234375 462.660156 C 234.035156 462.640625 234.820312 462.546875 235.601562 462.546875 C 238.296875 462.558594 240.816406 463.355469 243.234375 464.449219 C 244.550781 465.042969 245.691406 465.921875 246.335938 467.292969 C 247.257812 469.25 246.328125 471.117188 244.238281 471.621094 C 243.160156 471.882812 242.109375 471.808594 241.054688 471.578125 C 238.574219 471.039062 236.285156 469.988281 234.023438 468.878906 C 233.339844 468.546875 232.667969 468.195312 231.96875 467.835938 C 231.972656 467.921875 231.964844 467.949219 231.976562 467.972656 C 233.285156 470.867188 234.273438 473.855469 234.925781 476.96875 C 235.675781 480.542969 235.652344 484.074219 234.664062 487.59375 C 234.011719 489.925781 233.109375 492.148438 231.695312 494.140625 C 231.429688 494.515625 231.230469 494.9375 230.957031 495.414062 C 230.875 495.183594 230.8125 495.039062 230.769531 494.886719 C 230.304688 493.1875 229.507812 491.636719 228.710938 490.082031 C 227.863281 488.433594 227.023438 486.773438 226.273438 485.078125 C 225.628906 483.613281 225.195312 482.074219 225.167969 480.449219 C 225.121094 477.675781 225.519531 474.957031 226.242188 472.292969 C 226.800781 470.21875 227.484375 468.179688 228.113281 466.125 C 228.054688 466.195312 227.996094 466.261719 227.941406 466.332031 C 226.992188 467.601562 226.351562 469.035156 225.753906 470.488281 C 224.664062 473.152344 223.648438 475.839844 223.078125 478.671875 C 222.722656 480.433594 222.511719 482.207031 222.765625 484.003906 C 223.222656 487.238281 224.484375 490.1875 225.992188 493.050781 C 226.75 494.480469 227.394531 495.949219 227.511719 497.59375 C 227.640625 499.390625 227.222656 501.089844 226.671875 502.773438 C 226.597656 502.992188 226.539062 503.21875 226.472656 503.441406 C 226.515625 503.472656 226.558594 503.5 226.601562 503.53125 C 227.582031 502.800781 228.597656 502.117188 229.535156 501.335938 C 233.03125 498.433594 235.542969 494.839844 236.921875 490.496094 C 238.601562 485.203125 238.238281 479.933594 236.648438 474.691406 C 236.484375 474.148438 236.308594 473.609375 236.101562 472.9375 C 236.796875 473.195312 237.371094 473.414062 237.949219 473.617188 C 239.558594 474.183594 241.144531 474.828125 242.78125 475.289062 C 244.515625 475.769531 246.273438 475.710938 247.933594 474.886719 C 250.390625 473.675781 251.492188 470.964844 250.53125 468.535156 C 249.980469 467.144531 249.03125 466.066406 247.8125 465.238281 "/>
<path fill-rule="nonzero" fill="rgb(34.21936%, 14.7995%, 54.866028%)" fill-opacity="1" d="M 227.355469 442.671875 C 225.035156 441.464844 222.226562 442.277344 220.765625 444.597656 C 219.773438 446.160156 219.53125 447.90625 219.832031 449.679688 C 220.117188 451.359375 220.59375 453.003906 220.992188 454.660156 C 221.136719 455.257812 221.292969 455.847656 221.476562 456.570312 C 220.832031 456.292969 220.3125 456.0625 219.789062 455.84375 C 214.738281 453.71875 209.535156 452.808594 204.097656 453.933594 C 199.632812 454.851562 195.800781 456.976562 192.546875 460.148438 C 191.675781 461.003906 190.886719 461.941406 190.0625 462.839844 C 190.085938 462.886719 190.113281 462.933594 190.136719 462.976562 C 190.363281 462.9375 190.59375 462.902344 190.824219 462.851562 C 192.550781 462.476562 194.289062 462.238281 196.058594 462.550781 C 197.683594 462.839844 199.078125 463.632812 200.421875 464.535156 C 203.109375 466.332031 205.914062 467.894531 209.082031 468.683594 C 210.84375 469.125 212.632812 469.097656 214.417969 468.925781 C 217.296875 468.65625 220.078125 467.921875 222.839844 467.113281 C 224.34375 466.671875 225.835938 466.179688 227.195312 465.367188 C 227.273438 465.324219 227.347656 465.269531 227.421875 465.21875 C 225.3125 465.632812 223.214844 466.101562 221.09375 466.445312 C 218.367188 466.882812 215.621094 466.996094 212.871094 466.664062 C 211.257812 466.46875 209.769531 465.875 208.382812 465.082031 C 206.773438 464.160156 205.210938 463.152344 203.65625 462.140625 C 202.191406 461.183594 200.734375 460.230469 199.089844 459.59375 C 198.945312 459.535156 198.808594 459.457031 198.585938 459.351562 C 199.089844 459.128906 199.53125 458.972656 199.929688 458.75 C 202.058594 457.546875 204.363281 456.886719 206.75 456.476562 C 210.351562 455.859375 213.867188 456.203125 217.34375 457.320312 C 220.371094 458.292969 223.242188 459.585938 225.984375 461.1875 C 226.007812 461.199219 226.039062 461.195312 226.121094 461.207031 C 225.835938 460.476562 225.554688 459.769531 225.296875 459.058594 C 224.429688 456.691406 223.621094 454.304688 223.339844 451.78125 C 223.222656 450.710938 223.257812 449.660156 223.628906 448.609375 C 224.347656 446.585938 226.304688 445.855469 228.152344 446.972656 C 229.449219 447.761719 230.207031 448.984375 230.660156 450.355469 C 231.496094 452.875 232.027344 455.460938 231.757812 458.144531 C 231.679688 458.921875 231.503906 459.691406 231.398438 460.484375 C 231.578125 460.042969 231.777344 459.605469 231.9375 459.152344 C 232.742188 456.871094 232.894531 454.527344 232.503906 452.152344 C 232.128906 449.894531 231.433594 447.738281 230.347656 445.71875 C 229.652344 444.421875 228.679688 443.367188 227.355469 442.671875 "/>
<path fill-rule="nonzero" fill="rgb(34.21936%, 14.7995%, 54.866028%)" fill-opacity="1" d="M 233.996094 256.621094 C 235.085938 254.609375 235.789062 252.453125 236.171875 250.199219 C 236.574219 247.824219 236.425781 245.480469 235.632812 243.195312 C 235.472656 242.746094 235.277344 242.304688 235.097656 241.863281 C 235.199219 242.65625 235.371094 243.425781 235.445312 244.203125 C 235.707031 246.886719 235.167969 249.472656 234.320312 251.988281 C 233.863281 253.355469 233.105469 254.578125 231.800781 255.359375 C 229.949219 256.472656 227.996094 255.734375 227.285156 253.710938 C 226.917969 252.660156 226.882812 251.609375 227.007812 250.535156 C 227.296875 248.015625 228.113281 245.632812 228.988281 243.265625 C 229.25 242.554688 229.535156 241.851562 229.820312 241.117188 C 229.738281 241.132812 229.707031 241.128906 229.683594 241.140625 C 226.9375 242.730469 224.0625 244.015625 221.03125 244.976562 C 217.550781 246.082031 214.03125 246.414062 210.433594 245.785156 C 208.050781 245.367188 205.746094 244.695312 203.621094 243.488281 C 203.222656 243.261719 202.78125 243.105469 202.28125 242.878906 C 202.5 242.773438 202.640625 242.695312 202.785156 242.640625 C 204.429688 242.007812 205.894531 241.058594 207.359375 240.109375 C 208.917969 239.101562 210.484375 238.097656 212.09375 237.183594 C 213.488281 236.394531 214.976562 235.808594 216.589844 235.617188 C 219.34375 235.292969 222.089844 235.417969 224.8125 235.867188 C 226.929688 236.21875 229.03125 236.691406 231.136719 237.113281 C 231.0625 237.0625 230.988281 237.011719 230.914062 236.964844 C 229.554688 236.144531 228.066406 235.652344 226.558594 235.203125 C 223.800781 234.386719 221.023438 233.644531 218.148438 233.359375 C 216.359375 233.183594 214.574219 233.152344 212.8125 233.582031 C 209.640625 234.363281 206.832031 235.914062 204.132812 237.703125 C 202.789062 238.597656 201.390625 239.390625 199.765625 239.671875 C 197.992188 239.980469 196.257812 239.730469 194.527344 239.351562 C 194.300781 239.300781 194.070312 239.265625 193.84375 239.222656 C 193.820312 239.269531 193.792969 239.316406 193.765625 239.359375 C 194.589844 240.261719 195.375 241.203125 196.246094 242.058594 C 199.488281 245.242188 203.3125 247.382812 207.773438 248.316406 C 213.207031 249.460938 218.414062 248.570312 223.46875 246.464844 C 223.992188 246.246094 224.515625 246.019531 225.160156 245.742188 C 224.972656 246.460938 224.816406 247.054688 224.671875 247.648438 C 224.265625 249.304688 223.78125 250.949219 223.492188 252.625 C 223.183594 254.398438 223.421875 256.144531 224.40625 257.714844 C 225.859375 260.035156 228.667969 260.859375 230.988281 259.65625 C 232.316406 258.972656 233.292969 257.921875 233.996094 256.621094 "/>
<path fill-rule="nonzero" fill="rgb(34.21936%, 14.7995%, 54.866028%)" fill-opacity="1" d="M 254.394531 234.003906 C 255.363281 231.578125 254.273438 228.863281 251.820312 227.640625 C 250.164062 226.8125 248.40625 226.746094 246.667969 227.222656 C 245.027344 227.675781 243.4375 228.316406 241.832031 228.878906 C 241.25 229.082031 240.675781 229.296875 239.980469 229.550781 C 240.191406 228.878906 240.367188 228.339844 240.53125 227.796875 C 242.140625 222.5625 242.523438 217.292969 240.859375 211.996094 C 239.496094 207.644531 237 204.046875 233.515625 201.128906 C 232.582031 200.34375 231.566406 199.65625 230.589844 198.921875 C 230.546875 198.953125 230.503906 198.980469 230.460938 199.011719 C 230.523438 199.234375 230.582031 199.460938 230.65625 199.679688 C 231.199219 201.363281 231.613281 203.070312 231.480469 204.863281 C 231.355469 206.507812 230.703125 207.972656 229.945312 209.402344 C 228.421875 212.257812 227.152344 215.203125 226.683594 218.433594 C 226.421875 220.230469 226.628906 222.003906 226.976562 223.769531 C 227.535156 226.601562 228.542969 229.296875 229.625 231.960938 C 230.214844 233.417969 230.851562 234.851562 231.796875 236.125 C 231.851562 236.195312 231.910156 236.265625 231.96875 236.332031 C 231.34375 234.277344 230.671875 232.234375 230.117188 230.160156 C 229.40625 227.492188 229.015625 224.769531 229.074219 222 C 229.105469 220.375 229.542969 218.835938 230.195312 217.375 C 230.953125 215.679688 231.796875 214.027344 232.648438 212.378906 C 233.453125 210.824219 234.257812 209.277344 234.726562 207.582031 C 234.765625 207.429688 234.832031 207.285156 234.914062 207.054688 C 235.1875 207.53125 235.386719 207.953125 235.648438 208.328125 C 237.058594 210.328125 237.949219 212.554688 238.59375 214.890625 C 239.570312 218.410156 239.582031 221.941406 238.820312 225.511719 C 238.15625 228.625 237.152344 231.609375 235.835938 234.5 C 235.828125 234.523438 235.832031 234.550781 235.828125 234.636719 C 236.53125 234.28125 237.203125 233.929688 237.886719 233.601562 C 240.152344 232.5 242.445312 231.457031 244.929688 230.925781 C 245.984375 230.699219 247.03125 230.628906 248.113281 230.894531 C 250.199219 231.40625 251.125 233.277344 250.195312 235.230469 C 249.542969 236.601562 248.398438 237.472656 247.082031 238.066406 C 244.660156 239.148438 242.136719 239.9375 239.441406 239.9375 C 238.660156 239.9375 237.878906 239.839844 237.078125 239.816406 C 237.539062 239.949219 237.992188 240.105469 238.457031 240.21875 C 240.808594 240.789062 243.15625 240.707031 245.480469 240.078125 C 247.6875 239.480469 249.765625 238.570312 251.664062 237.289062 C 252.886719 236.464844 253.839844 235.394531 254.394531 234.003906 "/>
<path fill-rule="nonzero" fill="rgb(34.21936%, 14.7995%, 54.866028%)" fill-opacity="1" d="M 455.796875 238 C 457.738281 239.214844 459.84375 240.054688 462.074219 240.574219 C 464.417969 241.121094 466.765625 241.121094 469.09375 240.464844 C 469.554688 240.335938 470.003906 240.167969 470.460938 240.015625 C 469.660156 240.070312 468.882812 240.191406 468.101562 240.222656 C 465.40625 240.316406 462.859375 239.613281 460.402344 238.617188 C 459.0625 238.070312 457.890625 237.238281 457.191406 235.890625 C 456.195312 233.972656 457.054688 232.070312 459.121094 231.484375 C 460.191406 231.183594 461.242188 231.214844 462.304688 231.40625 C 464.800781 231.851562 467.128906 232.8125 469.4375 233.832031 C 470.128906 234.140625 470.8125 234.464844 471.527344 234.796875 C 471.519531 234.714844 471.527344 234.683594 471.515625 234.660156 C 470.097656 231.820312 468.992188 228.871094 468.222656 225.78125 C 467.335938 222.242188 467.222656 218.710938 468.074219 215.160156 C 468.636719 212.804688 469.453125 210.546875 470.789062 208.5 C 471.039062 208.117188 471.222656 207.6875 471.480469 207.199219 C 471.570312 207.425781 471.640625 207.570312 471.6875 207.71875 C 472.214844 209.398438 473.070312 210.917969 473.929688 212.441406 C 474.839844 214.058594 475.742188 215.683594 476.554688 217.351562 C 477.257812 218.785156 477.75 220.3125 477.839844 221.933594 C 477.992188 224.699219 477.699219 227.433594 477.082031 230.125 C 476.597656 232.214844 475.996094 234.28125 475.445312 236.359375 C 475.5 236.289062 475.558594 236.21875 475.609375 236.144531 C 476.507812 234.839844 477.09375 233.382812 477.632812 231.910156 C 478.621094 229.207031 479.535156 226.480469 479.996094 223.625 C 480.28125 221.855469 480.425781 220.074219 480.105469 218.289062 C 479.519531 215.074219 478.148438 212.171875 476.53125 209.371094 C 475.722656 207.972656 475.015625 206.527344 474.835938 204.890625 C 474.640625 203.101562 474.996094 201.382812 475.480469 199.683594 C 475.546875 199.460938 475.59375 199.230469 475.652344 199.007812 C 475.605469 198.976562 475.5625 198.949219 475.519531 198.921875 C 474.566406 199.6875 473.578125 200.414062 472.671875 201.226562 C 469.292969 204.265625 466.921875 207.953125 465.710938 212.34375 C 464.234375 217.699219 464.796875 222.949219 466.589844 228.125 C 466.773438 228.664062 466.96875 229.195312 467.203125 229.855469 C 466.496094 229.628906 465.914062 229.433594 465.328125 229.25 C 463.703125 228.746094 462.089844 228.160156 460.4375 227.765625 C 458.683594 227.351562 456.929688 227.480469 455.300781 228.363281 C 452.894531 229.671875 451.898438 232.421875 452.953125 234.8125 C 453.554688 236.183594 454.546875 237.21875 455.796875 238 "/>
<path fill-rule="nonzero" fill="rgb(34.21936%, 14.7995%, 54.866028%)" fill-opacity="1" d="M 477.105469 259.765625 C 479.46875 260.882812 482.242188 259.960938 483.617188 257.589844 C 484.542969 255.988281 484.71875 254.234375 484.351562 252.472656 C 484.003906 250.808594 483.460938 249.183594 483 247.542969 C 482.835938 246.949219 482.65625 246.367188 482.445312 245.652344 C 483.101562 245.90625 483.628906 246.113281 484.160156 246.3125 C 489.285156 248.242188 494.519531 248.949219 499.910156 247.621094 C 504.335938 246.53125 508.085938 244.257812 511.214844 240.964844 C 512.054688 240.078125 512.804688 239.109375 513.59375 238.179688 C 513.570312 238.136719 513.542969 238.089844 513.515625 238.046875 C 513.289062 238.097656 513.058594 238.140625 512.835938 238.199219 C 511.121094 238.636719 509.394531 238.945312 507.613281 238.699219 C 505.976562 238.476562 504.554688 237.734375 503.175781 236.886719 C 500.421875 235.191406 497.558594 233.742188 494.363281 233.070312 C 492.585938 232.699219 490.800781 232.792969 489.023438 233.03125 C 486.160156 233.417969 483.40625 234.253906 480.679688 235.167969 C 479.191406 235.667969 477.71875 236.214844 476.390625 237.078125 C 476.316406 237.128906 476.242188 237.183594 476.171875 237.238281 C 478.261719 236.742188 480.34375 236.195312 482.449219 235.769531 C 485.152344 235.226562 487.894531 235.007812 490.65625 235.234375 C 492.277344 235.371094 493.785156 235.902344 495.203125 236.644531 C 496.847656 237.503906 498.445312 238.449219 500.039062 239.402344 C 501.539062 240.300781 503.03125 241.199219 504.695312 241.773438 C 504.84375 241.824219 504.988281 241.898438 505.210938 241.992188 C 504.714844 242.234375 504.285156 242.410156 503.894531 242.648438 C 501.8125 243.929688 499.53125 244.679688 497.164062 245.183594 C 493.589844 245.9375 490.0625 245.726562 486.546875 244.746094 C 483.480469 243.890625 480.5625 242.707031 477.761719 241.210938 C 477.738281 241.199219 477.710938 241.203125 477.625 241.195312 C 477.9375 241.917969 478.246094 242.609375 478.535156 243.3125 C 479.492188 245.644531 480.386719 247.996094 480.765625 250.507812 C 480.925781 251.574219 480.929688 252.625 480.597656 253.6875 C 479.960938 255.738281 478.03125 256.542969 476.144531 255.496094 C 474.816406 254.761719 474.011719 253.566406 473.507812 252.214844 C 472.574219 249.726562 471.945312 247.164062 472.113281 244.472656 C 472.160156 243.691406 472.304688 242.917969 472.378906 242.121094 C 472.214844 242.570312 472.035156 243.015625 471.890625 243.472656 C 471.175781 245.785156 471.113281 248.128906 471.59375 250.492188 C 472.054688 252.730469 472.835938 254.859375 473.996094 256.835938 C 474.742188 258.105469 475.753906 259.125 477.105469 259.765625 "/>
</svg>
